<svg id="svg" version="1.1" xmlns="http://www.w3.org/2000/svg" xmlns:xlink="http://www.w3.org/1999/xlink" width="400" height="400" viewBox="0, 0, 400,400"><g id="svgg"><path id="path0" d="M0.000 200.000 L 0.000 400.000 200.000 400.000 L 400.000 400.000 400.000 200.000 L 400.000 0.000 200.000 0.000 L 0.000 0.000 0.000 200.000 M362.026 37.614 C 362.986 38.128,363.279 361.361,362.320 362.320 C 361.361 363.279,38.128 362.986,37.614 362.026 C 36.843 360.586,37.056 38.601,37.829 37.829 C 38.601 37.056,360.586 36.843,362.026 37.614 " stroke="none" fill="#2a3193" fill-rule="evenodd"></path><path id="path1" d="M104.267 123.867 C 104.120 124.013,104.000 129.662,104.000 136.420 L 104.000 148.707 104.900 148.948 C 105.395 149.081,108.230 149.194,111.200 149.201 C 114.170 149.207,116.826 149.356,117.102 149.531 C 117.500 149.784,117.582 160.188,117.502 200.225 L 117.400 250.600 111.600 250.697 C 108.410 250.751,105.395 250.889,104.900 251.005 L 104.000 251.215 104.000 263.618 L 104.000 276.020 105.033 276.413 C 105.683 276.660,115.983 276.767,132.733 276.703 L 159.400 276.600 159.506 263.700 L 159.611 250.800 153.606 250.800 C 146.887 250.800,146.285 250.578,145.806 247.922 C 145.120 244.112,145.794 150.835,146.513 150.114 C 147.115 149.511,148.174 149.369,153.313 149.200 L 159.400 149.000 159.506 136.300 L 159.611 123.600 132.072 123.600 C 116.926 123.600,104.413 123.720,104.267 123.867 M185.400 124.491 C 185.280 124.991,185.230 159.420,185.291 201.000 L 185.400 276.600 199.200 276.600 L 213.000 276.600 213.102 245.438 C 213.176 223.225,213.333 214.122,213.651 213.738 C 214.998 212.116,233.181 213.218,233.207 214.923 C 233.214 215.356,235.029 218.337,235.970 219.459 C 236.182 219.712,236.636 220.522,236.980 221.259 C 237.324 221.997,238.048 223.320,238.589 224.200 C 239.129 225.080,239.858 226.403,240.208 227.141 C 240.558 227.878,241.017 228.688,241.228 228.941 C 242.120 230.010,243.541 232.387,243.810 233.259 C 243.969 233.776,244.435 234.520,244.845 234.911 C 245.255 235.302,245.702 236.067,245.839 236.611 C 245.975 237.155,246.245 237.600,246.438 237.600 C 246.631 237.600,247.070 238.185,247.412 238.900 C 247.755 239.615,248.560 241.100,249.200 242.200 C 249.840 243.300,250.640 244.773,250.976 245.473 C 251.313 246.173,251.773 246.860,252.000 247.000 C 252.227 247.140,252.676 247.827,252.998 248.527 C 253.590 249.812,253.840 250.244,255.490 252.822 C 255.991 253.603,256.400 254.542,256.400 254.907 C 256.400 255.273,256.745 255.757,257.167 255.983 C 257.590 256.209,258.054 256.935,258.199 257.597 C 258.345 258.259,258.634 258.800,258.842 258.800 C 259.050 258.800,259.400 259.274,259.620 259.852 C 259.840 260.431,260.375 261.404,260.810 262.014 C 261.244 262.624,261.600 263.416,261.600 263.774 C 261.600 264.132,261.856 264.523,262.169 264.643 C 262.482 264.763,263.020 265.568,263.366 266.431 C 263.711 267.294,264.161 268.000,264.366 268.000 C 264.570 268.000,264.946 268.630,265.200 269.400 C 265.454 270.170,265.814 270.800,266.000 270.800 C 266.186 270.800,266.539 271.408,266.784 272.152 C 267.029 272.895,267.567 273.808,267.979 274.181 C 268.391 274.554,268.838 275.296,268.972 275.829 L 269.215 276.800 285.408 276.800 C 298.981 276.800,301.600 276.710,301.600 276.243 C 301.600 275.936,301.330 275.582,301.000 275.455 C 300.670 275.329,300.400 274.873,300.400 274.443 C 300.400 274.013,299.988 273.153,299.484 272.531 C 298.981 271.909,298.342 270.950,298.064 270.400 C 296.866 268.028,296.156 266.873,295.500 266.229 C 295.115 265.852,294.800 265.218,294.800 264.820 C 294.800 264.423,294.520 263.865,294.177 263.581 C 293.834 263.296,293.287 262.509,292.961 261.832 C 291.642 259.090,290.834 257.726,290.233 257.227 C 289.885 256.938,289.600 256.392,289.600 256.013 C 289.600 255.634,289.150 254.801,288.600 254.162 C 288.051 253.523,287.601 252.745,287.600 252.434 C 287.600 252.122,287.326 251.582,286.990 251.234 C 285.981 250.185,284.400 247.603,284.400 247.003 C 284.400 246.694,283.950 245.956,283.400 245.362 C 282.850 244.769,282.400 244.046,282.400 243.757 C 282.400 243.468,282.055 242.909,281.632 242.516 C 281.210 242.122,280.744 241.318,280.596 240.729 C 280.449 240.141,279.984 239.348,279.564 238.967 C 279.144 238.587,278.800 237.972,278.800 237.600 C 278.800 237.228,278.440 236.598,278.000 236.200 C 277.560 235.802,277.200 235.289,277.200 235.060 C 277.200 234.681,276.359 233.287,274.337 230.316 C 273.932 229.720,273.600 228.983,273.600 228.678 C 273.600 228.373,273.250 227.807,272.823 227.421 C 272.395 227.034,271.928 226.184,271.785 225.531 C 271.642 224.879,271.288 224.255,270.999 224.144 C 270.710 224.033,270.242 223.370,269.960 222.671 C 269.678 221.972,269.211 221.256,268.923 221.080 C 268.636 220.904,268.400 220.534,268.400 220.258 C 268.400 219.982,267.950 219.145,267.400 218.400 C 266.850 217.655,266.400 216.726,266.400 216.336 C 266.400 215.947,266.064 215.448,265.653 215.228 C 263.726 214.197,264.447 211.200,266.623 211.200 C 267.101 211.200,267.921 210.868,268.446 210.461 C 268.971 210.055,270.097 209.613,270.950 209.478 C 271.802 209.344,272.792 208.971,273.150 208.648 C 273.507 208.326,274.340 207.933,275.000 207.775 C 275.660 207.617,276.522 207.153,276.916 206.744 C 277.309 206.335,277.881 206.000,278.187 206.000 C 278.493 206.000,278.985 205.775,279.281 205.500 C 280.350 204.508,283.159 202.400,283.413 202.400 C 283.692 202.400,287.138 198.867,287.800 197.903 C 288.020 197.582,288.688 196.588,289.284 195.693 C 289.880 194.799,290.541 193.960,290.753 193.829 C 290.965 193.698,291.254 193.065,291.395 192.423 C 291.536 191.781,291.909 191.042,292.223 190.781 C 292.537 190.520,292.990 189.581,293.229 188.693 C 293.468 187.806,293.919 186.824,294.232 186.511 C 294.544 186.199,294.800 185.274,294.800 184.456 C 294.800 183.638,295.198 182.256,295.685 181.385 C 296.921 179.170,297.093 158.702,295.893 156.507 C 295.505 155.796,295.076 154.356,294.942 153.307 C 294.807 152.258,294.379 150.860,293.992 150.200 C 293.604 149.540,293.165 148.427,293.017 147.728 C 292.870 147.028,292.499 146.248,292.195 145.996 C 291.890 145.743,291.443 144.936,291.201 144.203 C 290.959 143.470,290.500 142.770,290.181 142.648 C 289.861 142.525,289.600 142.099,289.600 141.701 C 289.600 141.303,289.285 140.702,288.900 140.364 C 288.515 140.026,287.750 139.151,287.200 138.419 C 286.650 137.687,284.670 135.859,282.800 134.356 C 280.930 132.854,279.085 131.350,278.700 131.013 C 278.315 130.676,277.744 130.400,277.431 130.400 C 277.118 130.400,276.353 129.978,275.731 129.462 C 275.109 128.946,273.982 128.404,273.226 128.257 C 272.471 128.110,271.542 127.709,271.162 127.366 C 270.782 127.022,269.477 126.606,268.262 126.441 C 267.046 126.276,265.750 125.891,265.382 125.585 C 263.772 124.249,254.890 123.889,219.710 123.733 L 185.620 123.583 185.400 124.491 M253.639 151.851 C 253.948 152.098,255.232 152.426,256.494 152.579 C 257.755 152.731,258.900 153.038,259.038 153.261 C 259.175 153.484,260.040 153.988,260.958 154.382 C 262.803 155.173,266.799 159.001,266.801 159.979 C 266.802 160.321,267.200 161.230,267.686 162.000 C 269.326 164.600,269.256 172.399,267.562 175.885 C 265.841 179.424,262.903 182.352,259.364 184.053 L 256.600 185.381 236.000 185.523 C 222.166 185.618,215.039 185.526,214.300 185.242 L 213.200 184.820 213.200 168.886 C 213.200 152.130,213.222 151.915,215.000 151.465 C 216.717 151.029,253.068 151.392,253.639 151.851 " stroke="none" fill="#24b4ac" fill-rule="evenodd"></path><path id="path2" d="M38.880 38.880 C 37.958 39.802,38.209 360.503,39.131 361.338 C 39.810 361.952,51.560 362.000,200.116 362.000 L 360.369 362.000 361.184 361.125 L 362.000 360.249 362.000 199.987 C 362.000 45.235,361.975 39.701,361.269 39.062 C 360.316 38.200,39.741 38.019,38.880 38.880 M160.320 122.880 C 161.162 123.722,160.990 149.344,160.138 150.051 C 159.628 150.474,158.222 150.567,154.028 150.458 C 148.648 150.318,148.574 150.328,148.083 151.258 C 147.693 151.997,147.609 162.592,147.693 200.400 L 147.800 248.600 153.489 248.800 C 161.560 249.084,160.800 247.570,160.800 263.363 C 160.800 270.498,160.691 276.619,160.557 276.967 C 160.211 277.870,103.982 277.942,103.233 277.040 C 102.534 276.198,102.804 250.235,103.519 249.520 C 103.889 249.149,105.873 248.961,110.419 248.865 L 116.800 248.730 116.800 199.955 L 116.800 151.180 115.774 150.790 C 115.210 150.576,112.246 150.400,109.188 150.400 C 104.101 150.400,103.593 150.334,103.214 149.626 C 102.592 148.463,102.653 123.507,103.280 122.880 C 103.974 122.186,159.626 122.186,160.320 122.880 M259.811 123.066 C 260.257 123.323,262.048 123.731,263.792 123.974 C 265.536 124.216,267.370 124.681,267.867 125.007 C 268.365 125.333,269.181 125.600,269.680 125.600 C 270.478 125.600,273.897 127.018,275.600 128.055 C 275.930 128.256,276.965 128.784,277.900 129.229 C 278.835 129.673,279.600 130.209,279.600 130.419 C 279.600 130.628,279.830 130.800,280.111 130.800 C 280.737 130.800,285.464 134.556,286.907 136.200 C 287.486 136.860,288.509 138.025,289.180 138.789 C 289.851 139.553,290.400 140.386,290.400 140.640 C 290.400 140.894,290.680 141.335,291.023 141.619 C 291.366 141.904,291.902 142.691,292.215 143.368 C 292.528 144.046,292.949 144.870,293.152 145.200 C 294.240 146.975,295.600 150.190,295.600 150.986 C 295.600 151.488,295.955 152.701,296.389 153.683 C 296.877 154.785,297.331 157.136,297.577 159.834 C 297.797 162.235,298.124 165.010,298.304 166.000 C 298.485 166.990,298.502 169.060,298.343 170.600 C 298.183 172.140,297.861 175.254,297.627 177.520 C 297.376 179.954,296.874 182.359,296.401 183.398 C 295.960 184.365,295.599 185.571,295.599 186.078 C 295.598 186.585,295.265 187.544,294.859 188.210 C 294.454 188.875,293.900 190.090,293.630 190.910 C 293.359 191.729,292.972 192.400,292.769 192.400 C 292.566 192.400,292.400 192.639,292.400 192.931 C 292.400 193.638,290.013 197.262,289.112 197.923 C 288.720 198.210,288.400 198.705,288.400 199.023 C 288.400 199.340,288.126 199.600,287.791 199.600 C 287.457 199.600,286.978 200.050,286.727 200.600 C 286.477 201.150,286.129 201.600,285.954 201.600 C 285.779 201.600,285.210 202.005,284.689 202.500 C 282.183 204.880,280.159 206.445,279.312 206.658 C 278.799 206.787,278.210 207.208,278.004 207.593 C 277.797 207.979,277.067 208.407,276.382 208.544 C 275.696 208.681,274.675 209.155,274.114 209.596 C 273.552 210.038,272.598 210.400,271.995 210.400 C 271.392 210.400,270.682 210.660,270.418 210.978 C 270.154 211.296,268.962 211.759,267.769 212.006 C 265.929 212.388,264.551 213.600,265.957 213.600 C 266.153 213.600,266.601 214.320,266.953 215.200 C 267.305 216.080,267.748 216.800,267.936 216.800 C 268.124 216.800,268.583 217.475,268.955 218.300 C 269.912 220.420,271.019 222.337,271.763 223.159 C 272.113 223.546,272.400 224.142,272.400 224.483 C 272.400 224.823,272.698 225.349,273.062 225.651 C 273.426 225.953,273.973 226.740,274.277 227.400 C 274.581 228.060,275.360 229.410,276.007 230.400 C 276.654 231.390,277.371 232.626,277.600 233.147 C 277.829 233.668,278.372 234.547,278.808 235.101 C 279.244 235.655,279.600 236.444,279.600 236.854 C 279.600 237.264,279.783 237.600,280.006 237.600 C 280.230 237.600,280.725 238.275,281.106 239.100 C 281.488 239.925,282.025 240.744,282.300 240.920 C 282.575 241.096,282.800 241.466,282.800 241.742 C 282.800 242.018,283.250 242.855,283.800 243.600 C 284.350 244.345,284.800 245.209,284.800 245.520 C 284.800 245.830,285.250 246.619,285.800 247.273 C 286.350 247.927,286.800 248.696,286.800 248.982 C 286.800 249.268,287.080 249.735,287.423 250.019 C 287.766 250.304,288.315 251.091,288.645 251.768 C 289.560 253.652,290.639 255.524,291.200 256.200 C 291.671 256.768,292.137 257.562,293.779 260.600 C 294.136 261.260,294.868 262.520,295.406 263.400 C 295.943 264.280,296.702 265.630,297.092 266.400 C 297.481 267.170,297.997 267.980,298.238 268.200 C 298.479 268.420,298.901 269.172,299.175 269.871 C 299.449 270.570,299.927 271.240,300.237 271.359 C 300.546 271.478,300.800 271.906,300.800 272.310 C 300.800 272.714,301.250 273.655,301.800 274.400 C 304.263 277.738,304.588 277.674,285.484 277.622 L 269.000 277.578 267.715 276.089 C 267.008 275.270,266.423 274.292,266.415 273.916 C 266.407 273.539,266.055 272.909,265.632 272.516 C 265.210 272.122,264.744 271.318,264.596 270.729 C 264.449 270.141,263.984 269.348,263.564 268.967 C 263.144 268.587,262.800 268.062,262.800 267.800 C 262.800 267.539,262.350 266.801,261.800 266.162 C 261.251 265.523,260.801 264.707,260.800 264.349 C 260.800 263.991,260.520 263.465,260.177 263.181 C 259.834 262.896,259.287 262.109,258.961 261.432 C 257.642 258.690,256.834 257.326,256.233 256.827 C 255.885 256.538,255.600 256.035,255.600 255.709 C 255.600 255.382,255.150 254.581,254.600 253.927 C 254.050 253.273,253.600 252.392,253.600 251.969 C 253.600 251.546,253.414 251.200,253.186 251.200 C 252.958 251.200,252.424 250.390,252.000 249.400 C 251.576 248.410,251.042 247.600,250.814 247.600 C 250.586 247.600,250.400 247.318,250.400 246.973 C 250.400 246.629,249.950 245.757,249.400 245.036 C 248.850 244.314,248.400 243.426,248.400 243.062 C 248.400 242.698,248.210 242.400,247.978 242.400 C 247.745 242.400,247.200 241.635,246.765 240.700 C 245.806 238.635,245.274 237.752,244.100 236.272 C 243.605 235.649,243.200 234.863,243.200 234.527 C 243.200 234.191,242.750 233.381,242.200 232.727 C 241.650 232.073,241.200 231.236,241.200 230.866 C 241.200 230.495,240.840 229.968,240.400 229.693 C 239.960 229.418,239.600 228.863,239.600 228.459 C 239.600 228.055,239.240 227.398,238.800 227.000 C 238.360 226.602,238.000 226.069,238.000 225.816 C 238.000 225.563,237.550 224.745,237.000 224.000 C 236.450 223.255,236.000 222.347,236.000 221.984 C 236.000 221.621,235.640 220.998,235.200 220.600 C 234.760 220.202,234.400 219.648,234.400 219.369 C 234.400 219.090,233.950 218.327,233.400 217.673 C 232.850 217.019,232.400 216.306,232.400 216.088 C 232.400 214.360,216.657 213.400,215.029 215.029 C 214.468 215.589,214.400 218.965,214.400 246.180 C 214.400 272.040,214.313 276.774,213.833 277.173 C 212.769 278.055,184.852 277.818,184.172 276.920 C 183.242 275.694,183.344 124.145,184.276 123.116 C 185.108 122.197,258.216 122.149,259.811 123.066 M214.900 153.453 C 214.512 153.619,214.400 157.121,214.400 169.033 L 214.400 184.400 234.900 184.399 C 254.108 184.397,255.476 184.351,256.608 183.660 C 257.273 183.255,258.488 182.798,259.308 182.644 C 260.129 182.490,260.800 182.186,260.800 181.969 C 260.800 181.752,261.115 181.461,261.500 181.321 C 262.302 181.030,264.789 178.750,264.796 178.300 C 264.798 178.135,265.160 177.640,265.600 177.200 C 266.040 176.760,266.400 176.031,266.400 175.580 C 266.400 175.129,266.702 174.184,267.072 173.480 C 267.972 171.766,267.961 166.381,267.053 164.313 C 266.694 163.495,266.400 162.379,266.400 161.832 C 266.400 160.457,261.397 155.395,259.661 155.013 C 258.963 154.860,258.092 154.434,257.725 154.067 C 257.065 153.408,216.373 152.824,214.900 153.453 " stroke="none" fill="#fbfbfb" fill-rule="evenodd"></path><path id="path3" d="M37.829 37.829 C 37.056 38.601,36.843 360.586,37.614 362.026 C 38.128 362.986,361.361 363.279,362.320 362.320 C 363.279 361.361,362.986 38.128,362.026 37.614 C 360.586 36.843,38.601 37.056,37.829 37.829 M362.008 38.400 C 362.748 39.570,362.512 361.031,361.771 361.771 C 361.031 362.512,39.570 362.748,38.400 362.008 C 37.786 361.620,37.199 44.008,37.805 39.725 C 37.990 38.416,38.233 38.013,38.921 37.879 C 41.817 37.313,361.648 37.829,362.008 38.400 M104.000 123.191 C 103.206 123.693,102.854 148.101,103.627 149.033 C 103.994 149.475,105.391 149.600,109.973 149.600 C 114.043 149.600,116.056 149.754,116.527 150.100 C 117.161 150.566,117.199 153.924,117.103 200.200 L 117.000 249.800 110.532 250.000 C 106.975 250.110,103.915 250.350,103.732 250.533 C 103.071 251.197,103.328 276.383,104.000 276.808 C 105.351 277.663,159.522 277.293,159.986 276.426 C 160.245 275.942,160.400 271.109,160.400 263.488 C 160.400 248.648,161.092 250.000,153.491 250.000 C 148.317 250.000,148.014 249.956,147.423 249.111 C 146.867 248.318,146.800 242.970,146.800 199.711 C 146.800 142.445,145.806 149.532,153.827 149.623 C 157.578 149.666,159.397 149.535,159.808 149.193 C 160.537 148.588,160.701 124.910,159.986 123.574 C 159.522 122.708,105.352 122.337,104.000 123.191 M185.200 123.192 C 184.415 123.688,184.068 275.718,184.850 276.660 C 185.224 277.111,187.830 277.191,199.353 277.105 L 213.400 277.000 213.600 245.685 C 213.774 218.433,213.878 214.321,214.400 213.991 C 215.255 213.451,230.128 213.493,231.326 214.039 C 231.855 214.280,232.587 215.045,232.951 215.739 C 233.316 216.433,234.144 217.810,234.792 218.800 C 235.440 219.790,236.241 221.140,236.571 221.800 C 236.902 222.460,237.630 223.720,238.189 224.600 C 238.748 225.480,239.492 226.830,239.842 227.600 C 240.193 228.370,240.711 229.270,240.994 229.600 C 241.277 229.930,242.055 231.233,242.722 232.496 C 243.390 233.759,244.310 235.268,244.768 235.850 C 245.226 236.432,245.600 237.126,245.600 237.392 C 245.600 237.658,245.960 238.202,246.400 238.600 C 246.840 238.998,247.207 239.521,247.216 239.762 C 247.224 240.003,247.848 241.190,248.602 242.400 C 249.355 243.610,250.255 245.140,250.600 245.800 C 250.946 246.460,251.665 247.720,252.199 248.600 C 252.733 249.480,253.561 250.920,254.039 251.800 C 254.517 252.680,255.043 253.490,255.209 253.600 C 255.374 253.710,255.797 254.430,256.147 255.200 C 256.777 256.584,257.090 257.123,258.545 259.323 C 258.954 259.942,259.733 261.293,260.274 262.325 C 260.816 263.356,261.667 264.830,262.165 265.600 C 264.072 268.545,264.613 269.432,265.091 270.400 C 265.363 270.950,265.811 271.760,266.088 272.200 C 266.364 272.640,267.187 273.945,267.917 275.100 L 269.243 277.200 285.598 277.200 C 303.307 277.200,302.935 277.253,301.503 274.914 C 300.258 272.880,299.760 272.055,298.778 270.400 C 298.321 269.630,297.510 268.280,296.976 267.400 C 296.442 266.520,295.737 265.227,295.409 264.527 C 295.081 263.827,294.635 263.145,294.417 263.011 C 294.200 262.877,293.659 262.009,293.215 261.083 C 292.771 260.158,292.019 258.770,291.546 258.000 C 291.072 257.230,290.271 255.880,289.767 255.000 C 288.514 252.812,287.370 250.901,286.177 249.000 C 285.624 248.120,284.911 246.827,284.592 246.127 C 284.273 245.427,283.827 244.740,283.600 244.600 C 283.373 244.460,282.914 243.773,282.580 243.073 C 282.245 242.373,281.573 241.145,281.086 240.345 C 280.599 239.545,279.390 237.510,278.400 235.821 C 277.410 234.133,276.202 232.088,275.715 231.276 C 273.798 228.078,272.970 226.637,272.253 225.248 C 271.842 224.452,271.367 223.710,271.198 223.600 C 271.028 223.490,270.599 222.770,270.244 222.000 C 269.888 221.230,269.060 219.790,268.402 218.800 C 267.744 217.810,267.007 216.505,266.764 215.900 C 266.521 215.295,266.177 214.800,266.000 214.800 C 265.823 214.800,265.497 214.280,265.275 213.644 C 264.769 212.191,265.284 211.600,267.056 211.600 C 267.769 211.600,268.460 211.427,268.590 211.216 C 268.721 211.005,269.856 210.521,271.114 210.140 C 272.371 209.760,273.670 209.234,274.000 208.971 C 274.330 208.709,275.024 208.365,275.541 208.207 C 280.530 206.684,289.370 197.960,292.571 191.400 C 293.215 190.080,294.070 188.345,294.471 187.546 C 294.872 186.746,295.200 185.796,295.200 185.436 C 295.200 185.075,295.548 183.791,295.972 182.583 C 297.732 177.575,297.905 159.422,296.231 155.411 C 295.953 154.745,295.594 153.480,295.433 152.600 C 295.069 150.613,293.811 147.722,291.238 142.960 C 288.287 137.499,281.082 131.185,274.400 128.204 C 273.630 127.861,272.640 127.372,272.200 127.118 C 271.760 126.865,270.500 126.430,269.400 126.153 C 268.300 125.875,266.590 125.379,265.600 125.050 C 259.540 123.036,188.060 121.384,185.200 123.192 M159.506 136.300 L 159.400 149.000 153.313 149.200 C 148.174 149.369,147.115 149.511,146.513 150.114 C 145.794 150.835,145.120 244.112,145.806 247.922 C 146.285 250.578,146.887 250.800,153.606 250.800 L 159.611 250.800 159.506 263.700 L 159.400 276.600 132.733 276.703 C 115.983 276.767,105.683 276.660,105.033 276.413 L 104.000 276.020 104.000 263.618 L 104.000 251.215 104.900 251.005 C 105.395 250.889,108.410 250.751,111.600 250.697 L 117.400 250.600 117.502 200.225 C 117.582 160.188,117.500 149.784,117.102 149.531 C 116.826 149.356,114.170 149.207,111.200 149.201 C 108.230 149.194,105.395 149.081,104.900 148.948 L 104.000 148.707 104.000 136.420 C 104.000 129.662,104.120 124.013,104.267 123.867 C 104.413 123.720,116.926 123.600,132.072 123.600 L 159.611 123.600 159.506 136.300 M259.256 124.456 C 262.548 124.802,264.977 125.249,265.382 125.585 C 265.750 125.891,267.046 126.276,268.262 126.441 C 269.477 126.606,270.782 127.022,271.162 127.366 C 271.542 127.709,272.471 128.110,273.226 128.257 C 273.982 128.404,275.109 128.946,275.731 129.462 C 276.353 129.978,277.118 130.400,277.431 130.400 C 277.744 130.400,278.315 130.676,278.700 131.013 C 279.085 131.350,280.930 132.854,282.800 134.356 C 284.670 135.859,286.650 137.687,287.200 138.419 C 287.750 139.151,288.515 140.026,288.900 140.364 C 289.285 140.702,289.600 141.303,289.600 141.701 C 289.600 142.099,289.861 142.525,290.181 142.648 C 290.500 142.770,290.959 143.470,291.201 144.203 C 291.443 144.936,291.890 145.743,292.195 145.996 C 292.499 146.248,292.870 147.028,293.017 147.728 C 293.165 148.427,293.604 149.540,293.992 150.200 C 294.379 150.860,294.807 152.258,294.942 153.307 C 295.076 154.356,295.505 155.796,295.893 156.507 C 297.093 158.702,296.921 179.170,295.685 181.385 C 295.198 182.256,294.800 183.638,294.800 184.456 C 294.800 185.274,294.544 186.199,294.232 186.511 C 293.919 186.824,293.468 187.806,293.229 188.693 C 292.990 189.581,292.537 190.520,292.223 190.781 C 291.909 191.042,291.536 191.781,291.395 192.423 C 291.254 193.065,290.965 193.698,290.753 193.829 C 290.541 193.960,289.880 194.799,289.284 195.693 C 288.688 196.588,288.020 197.582,287.800 197.903 C 287.138 198.867,283.692 202.400,283.413 202.400 C 283.159 202.400,280.350 204.508,279.281 205.500 C 278.985 205.775,278.493 206.000,278.187 206.000 C 277.881 206.000,277.309 206.335,276.916 206.744 C 276.522 207.153,275.660 207.617,275.000 207.775 C 274.340 207.933,273.507 208.326,273.150 208.648 C 272.792 208.971,271.802 209.344,270.950 209.478 C 270.097 209.613,268.971 210.055,268.446 210.461 C 267.921 210.868,267.101 211.200,266.623 211.200 C 264.447 211.200,263.726 214.197,265.653 215.228 C 266.064 215.448,266.400 215.947,266.400 216.336 C 266.400 216.726,266.850 217.655,267.400 218.400 C 267.950 219.145,268.400 219.982,268.400 220.258 C 268.400 220.534,268.636 220.904,268.923 221.080 C 269.211 221.256,269.678 221.972,269.960 222.671 C 270.242 223.370,270.710 224.033,270.999 224.144 C 271.288 224.255,271.642 224.879,271.785 225.531 C 271.928 226.184,272.395 227.034,272.823 227.421 C 273.250 227.807,273.600 228.373,273.600 228.678 C 273.600 228.983,273.932 229.720,274.337 230.316 C 276.359 233.287,277.200 234.681,277.200 235.060 C 277.200 235.289,277.560 235.802,278.000 236.200 C 278.440 236.598,278.800 237.228,278.800 237.600 C 278.800 237.972,279.144 238.587,279.564 238.967 C 279.984 239.348,280.449 240.141,280.596 240.729 C 280.744 241.318,281.210 242.122,281.632 242.516 C 282.055 242.909,282.400 243.468,282.400 243.757 C 282.400 244.046,282.850 244.769,283.400 245.362 C 283.950 245.956,284.400 246.694,284.400 247.003 C 284.400 247.603,285.981 250.185,286.990 251.234 C 287.326 251.582,287.600 252.122,287.600 252.434 C 287.601 252.745,288.051 253.523,288.600 254.162 C 289.150 254.801,289.600 255.634,289.600 256.013 C 289.600 256.392,289.885 256.938,290.233 257.227 C 290.834 257.726,291.642 259.090,292.961 261.832 C 293.287 262.509,293.834 263.296,294.177 263.581 C 294.520 263.865,294.800 264.423,294.800 264.820 C 294.800 265.218,295.115 265.852,295.500 266.229 C 296.156 266.873,296.866 268.028,298.064 270.400 C 298.342 270.950,298.981 271.909,299.484 272.531 C 299.988 273.153,300.400 274.013,300.400 274.443 C 300.400 274.873,300.670 275.329,301.000 275.455 C 301.330 275.582,301.600 275.936,301.600 276.243 C 301.600 276.710,298.981 276.800,285.408 276.800 L 269.215 276.800 268.972 275.829 C 268.838 275.296,268.391 274.554,267.979 274.181 C 267.567 273.808,267.029 272.895,266.784 272.152 C 266.539 271.408,266.186 270.800,266.000 270.800 C 265.814 270.800,265.454 270.170,265.200 269.400 C 264.946 268.630,264.570 268.000,264.366 268.000 C 264.161 268.000,263.711 267.294,263.366 266.431 C 263.020 265.568,262.482 264.763,262.169 264.643 C 261.856 264.523,261.600 264.132,261.600 263.774 C 261.600 263.416,261.244 262.624,260.810 262.014 C 260.375 261.404,259.840 260.431,259.620 259.852 C 259.400 259.274,259.050 258.800,258.842 258.800 C 258.634 258.800,258.345 258.259,258.199 257.597 C 258.054 256.935,257.590 256.209,257.167 255.983 C 256.745 255.757,256.400 255.273,256.400 254.907 C 256.400 254.542,255.991 253.603,255.490 252.822 C 253.840 250.244,253.590 249.812,252.998 248.527 C 252.676 247.827,252.227 247.140,252.000 247.000 C 251.773 246.860,251.313 246.173,250.976 245.473 C 250.640 244.773,249.840 243.300,249.200 242.200 C 248.560 241.100,247.755 239.615,247.412 238.900 C 247.070 238.185,246.631 237.600,246.438 237.600 C 246.245 237.600,245.975 237.155,245.839 236.611 C 245.702 236.067,245.255 235.302,244.845 234.911 C 244.435 234.520,243.969 233.776,243.810 233.259 C 243.541 232.387,242.120 230.010,241.228 228.941 C 241.017 228.688,240.558 227.878,240.208 227.141 C 239.858 226.403,239.129 225.080,238.589 224.200 C 238.048 223.320,237.324 221.997,236.980 221.259 C 236.636 220.522,236.182 219.712,235.970 219.459 C 235.029 218.337,233.214 215.356,233.207 214.923 C 233.181 213.218,214.998 212.116,213.651 213.738 C 213.333 214.122,213.176 223.225,213.102 245.438 L 213.000 276.600 199.200 276.600 L 185.400 276.600 185.291 201.000 C 185.230 159.420,185.280 124.991,185.400 124.491 L 185.620 123.583 219.710 123.733 C 245.582 123.847,255.115 124.022,259.256 124.456 M215.000 151.465 C 213.222 151.915,213.200 152.130,213.200 168.886 L 213.200 184.820 214.300 185.242 C 215.039 185.526,222.166 185.618,236.000 185.523 L 256.600 185.381 259.364 184.053 C 262.903 182.352,265.841 179.424,267.562 175.885 C 269.256 172.399,269.326 164.600,267.686 162.000 C 267.200 161.230,266.802 160.321,266.801 159.979 C 266.799 159.001,262.803 155.173,260.958 154.382 C 260.040 153.988,259.175 153.484,259.038 153.261 C 258.900 153.038,257.755 152.731,256.494 152.579 C 255.232 152.426,253.948 152.098,253.639 151.851 C 253.068 151.392,216.717 151.029,215.000 151.465 M255.032 152.801 C 259.594 153.541,264.465 156.741,266.089 160.065 C 268.146 164.277,268.200 164.509,268.182 169.000 C 268.165 172.915,268.045 173.653,267.091 175.691 C 266.039 177.938,261.694 182.800,260.739 182.800 C 260.485 182.800,259.323 183.252,258.156 183.804 L 256.035 184.807 234.917 184.704 L 213.800 184.600 213.695 169.047 C 213.620 157.899,213.719 153.339,214.044 152.947 C 214.600 152.277,251.009 152.148,255.032 152.801 " stroke="none" fill="#84cccc" fill-rule="evenodd"></path><path id="path4" d="M38.921 37.879 C 38.233 38.013,37.990 38.416,37.805 39.725 C 37.199 44.008,37.786 361.620,38.400 362.008 C 39.570 362.748,361.031 362.512,361.771 361.771 C 362.512 361.031,362.748 39.570,362.008 38.400 C 361.648 37.829,41.817 37.313,38.921 37.879 M361.269 39.062 C 361.975 39.701,362.000 45.235,362.000 199.987 L 362.000 360.249 361.184 361.125 L 360.369 362.000 200.116 362.000 C 51.560 362.000,39.810 361.952,39.131 361.338 C 38.209 360.503,37.958 39.802,38.880 38.880 C 39.741 38.019,360.316 38.200,361.269 39.062 M103.280 122.880 C 102.653 123.507,102.592 148.463,103.214 149.626 C 103.593 150.334,104.101 150.400,109.188 150.400 C 112.246 150.400,115.210 150.576,115.774 150.790 L 116.800 151.180 116.800 199.955 L 116.800 248.730 110.419 248.865 C 105.873 248.961,103.889 249.149,103.519 249.520 C 102.804 250.235,102.534 276.198,103.233 277.040 C 103.982 277.942,160.211 277.870,160.557 276.967 C 160.691 276.619,160.800 270.498,160.800 263.363 C 160.800 247.570,161.560 249.084,153.489 248.800 L 147.800 248.600 147.693 200.400 C 147.609 162.592,147.693 151.997,148.083 151.258 C 148.574 150.328,148.648 150.318,154.028 150.458 C 158.222 150.567,159.628 150.474,160.138 150.051 C 160.990 149.344,161.162 123.722,160.320 122.880 C 159.626 122.186,103.974 122.186,103.280 122.880 M184.276 123.116 C 183.344 124.145,183.242 275.694,184.172 276.920 C 184.852 277.818,212.769 278.055,213.833 277.173 C 214.313 276.774,214.400 272.040,214.400 246.180 C 214.400 218.965,214.468 215.589,215.029 215.029 C 216.657 213.400,232.400 214.360,232.400 216.088 C 232.400 216.306,232.850 217.019,233.400 217.673 C 233.950 218.327,234.400 219.090,234.400 219.369 C 234.400 219.648,234.760 220.202,235.200 220.600 C 235.640 220.998,236.000 221.621,236.000 221.984 C 236.000 222.347,236.450 223.255,237.000 224.000 C 237.550 224.745,238.000 225.563,238.000 225.816 C 238.000 226.069,238.360 226.602,238.800 227.000 C 239.240 227.398,239.600 228.055,239.600 228.459 C 239.600 228.863,239.960 229.418,240.400 229.693 C 240.840 229.968,241.200 230.495,241.200 230.866 C 241.200 231.236,241.650 232.073,242.200 232.727 C 242.750 233.381,243.200 234.191,243.200 234.527 C 243.200 234.863,243.605 235.649,244.100 236.272 C 245.274 237.752,245.806 238.635,246.765 240.700 C 247.200 241.635,247.745 242.400,247.978 242.400 C 248.210 242.400,248.400 242.698,248.400 243.062 C 248.400 243.426,248.850 244.314,249.400 245.036 C 249.950 245.757,250.400 246.629,250.400 246.973 C 250.400 247.318,250.586 247.600,250.814 247.600 C 251.042 247.600,251.576 248.410,252.000 249.400 C 252.424 250.390,252.958 251.200,253.186 251.200 C 253.414 251.200,253.600 251.546,253.600 251.969 C 253.600 252.392,254.050 253.273,254.600 253.927 C 255.150 254.581,255.600 255.382,255.600 255.709 C 255.600 256.035,255.885 256.538,256.233 256.827 C 256.834 257.326,257.642 258.690,258.961 261.432 C 259.287 262.109,259.834 262.896,260.177 263.181 C 260.520 263.465,260.800 263.991,260.800 264.349 C 260.801 264.707,261.251 265.523,261.800 266.162 C 262.350 266.801,262.800 267.539,262.800 267.800 C 262.800 268.062,263.144 268.587,263.564 268.967 C 263.984 269.348,264.449 270.141,264.596 270.729 C 264.744 271.318,265.210 272.122,265.632 272.516 C 266.055 272.909,266.407 273.539,266.415 273.916 C 266.423 274.292,267.008 275.270,267.715 276.089 L 269.000 277.578 285.484 277.622 C 304.588 277.674,304.263 277.738,301.800 274.400 C 301.250 273.655,300.800 272.714,300.800 272.310 C 300.800 271.906,300.546 271.478,300.237 271.359 C 299.927 271.240,299.449 270.570,299.175 269.871 C 298.901 269.172,298.479 268.420,298.238 268.200 C 297.997 267.980,297.481 267.170,297.092 266.400 C 296.702 265.630,295.943 264.280,295.406 263.400 C 294.868 262.520,294.136 261.260,293.779 260.600 C 292.137 257.562,291.671 256.768,291.200 256.200 C 290.639 255.524,289.560 253.652,288.645 251.768 C 288.315 251.091,287.766 250.304,287.423 250.019 C 287.080 249.735,286.800 249.268,286.800 248.982 C 286.800 248.696,286.350 247.927,285.800 247.273 C 285.250 246.619,284.800 245.830,284.800 245.520 C 284.800 245.209,284.350 244.345,283.800 243.600 C 283.250 242.855,282.800 242.018,282.800 241.742 C 282.800 241.466,282.575 241.096,282.300 240.920 C 282.025 240.744,281.488 239.925,281.106 239.100 C 280.725 238.275,280.230 237.600,280.006 237.600 C 279.783 237.600,279.600 237.264,279.600 236.854 C 279.600 236.444,279.244 235.655,278.808 235.101 C 278.372 234.547,277.829 233.668,277.600 233.147 C 277.371 232.626,276.654 231.390,276.007 230.400 C 275.360 229.410,274.581 228.060,274.277 227.400 C 273.973 226.740,273.426 225.953,273.062 225.651 C 272.698 225.349,272.400 224.823,272.400 224.483 C 272.400 224.142,272.113 223.546,271.763 223.159 C 271.019 222.337,269.912 220.420,268.955 218.300 C 268.583 217.475,268.124 216.800,267.936 216.800 C 267.748 216.800,267.305 216.080,266.953 215.200 C 266.601 214.320,266.153 213.600,265.957 213.600 C 264.551 213.600,265.929 212.388,267.769 212.006 C 268.962 211.759,270.154 211.296,270.418 210.978 C 270.682 210.660,271.392 210.400,271.995 210.400 C 272.598 210.400,273.552 210.038,274.114 209.596 C 274.675 209.155,275.696 208.681,276.382 208.544 C 277.067 208.407,277.797 207.979,278.004 207.593 C 278.210 207.208,278.799 206.787,279.312 206.658 C 280.159 206.445,282.183 204.880,284.689 202.500 C 285.210 202.005,285.779 201.600,285.954 201.600 C 286.129 201.600,286.477 201.150,286.727 200.600 C 286.978 200.050,287.457 199.600,287.791 199.600 C 288.126 199.600,288.400 199.340,288.400 199.023 C 288.400 198.705,288.720 198.210,289.112 197.923 C 290.013 197.262,292.400 193.638,292.400 192.931 C 292.400 192.639,292.566 192.400,292.769 192.400 C 292.972 192.400,293.359 191.729,293.630 190.910 C 293.900 190.090,294.454 188.875,294.859 188.210 C 295.265 187.544,295.598 186.585,295.599 186.078 C 295.599 185.571,295.960 184.365,296.401 183.398 C 296.874 182.359,297.376 179.954,297.627 177.520 C 297.861 175.254,298.183 172.140,298.343 170.600 C 298.502 169.060,298.485 166.990,298.304 166.000 C 298.124 165.010,297.797 162.235,297.577 159.834 C 297.331 157.136,296.877 154.785,296.389 153.683 C 295.955 152.701,295.600 151.488,295.600 150.986 C 295.600 150.190,294.240 146.975,293.152 145.200 C 292.949 144.870,292.528 144.046,292.215 143.368 C 291.902 142.691,291.366 141.904,291.023 141.619 C 290.680 141.335,290.400 140.894,290.400 140.640 C 290.400 140.386,289.851 139.553,289.180 138.789 C 288.509 138.025,287.486 136.860,286.907 136.200 C 285.464 134.556,280.737 130.800,280.111 130.800 C 279.830 130.800,279.600 130.628,279.600 130.419 C 279.600 130.209,278.835 129.673,277.900 129.229 C 276.965 128.784,275.930 128.256,275.600 128.055 C 273.897 127.018,270.478 125.600,269.680 125.600 C 269.181 125.600,268.365 125.333,267.867 125.007 C 267.370 124.681,265.536 124.216,263.792 123.974 C 262.048 123.731,260.257 123.323,259.811 123.066 C 258.216 122.149,185.108 122.197,184.276 123.116 M159.986 123.574 C 160.701 124.910,160.537 148.588,159.808 149.193 C 159.397 149.535,157.578 149.666,153.827 149.623 C 145.806 149.532,146.800 142.445,146.800 199.711 C 146.800 242.970,146.867 248.318,147.423 249.111 C 148.014 249.956,148.317 250.000,153.491 250.000 C 161.092 250.000,160.400 248.648,160.400 263.488 C 160.400 271.109,160.245 275.942,159.986 276.426 C 159.522 277.293,105.351 277.663,104.000 276.808 C 103.328 276.383,103.071 251.197,103.732 250.533 C 103.915 250.350,106.975 250.110,110.532 250.000 L 117.000 249.800 117.103 200.200 C 117.199 153.924,117.161 150.566,116.527 150.100 C 116.056 149.754,114.043 149.600,109.973 149.600 C 105.391 149.600,103.994 149.475,103.627 149.033 C 102.854 148.101,103.206 123.693,104.000 123.191 C 105.352 122.337,159.522 122.708,159.986 123.574 M257.400 123.613 C 260.920 124.074,264.610 124.721,265.600 125.050 C 266.590 125.379,268.300 125.875,269.400 126.153 C 270.500 126.430,271.760 126.865,272.200 127.118 C 272.640 127.372,273.630 127.861,274.400 128.204 C 281.082 131.185,288.287 137.499,291.238 142.960 C 293.811 147.722,295.069 150.613,295.433 152.600 C 295.594 153.480,295.953 154.745,296.231 155.411 C 297.905 159.422,297.732 177.575,295.972 182.583 C 295.548 183.791,295.200 185.075,295.200 185.436 C 295.200 185.796,294.872 186.746,294.471 187.546 C 294.070 188.345,293.215 190.080,292.571 191.400 C 289.370 197.960,280.530 206.684,275.541 208.207 C 275.024 208.365,274.330 208.709,274.000 208.971 C 273.670 209.234,272.371 209.760,271.114 210.140 C 269.856 210.521,268.721 211.005,268.590 211.216 C 268.460 211.427,267.769 211.600,267.056 211.600 C 265.284 211.600,264.769 212.191,265.275 213.644 C 265.497 214.280,265.823 214.800,266.000 214.800 C 266.177 214.800,266.521 215.295,266.764 215.900 C 267.007 216.505,267.744 217.810,268.402 218.800 C 269.060 219.790,269.888 221.230,270.244 222.000 C 270.599 222.770,271.028 223.490,271.198 223.600 C 271.367 223.710,271.842 224.452,272.253 225.248 C 272.970 226.637,273.798 228.078,275.715 231.276 C 276.202 232.088,277.410 234.133,278.400 235.821 C 279.390 237.510,280.599 239.545,281.086 240.345 C 281.573 241.145,282.245 242.373,282.580 243.073 C 282.914 243.773,283.373 244.460,283.600 244.600 C 283.827 244.740,284.273 245.427,284.592 246.127 C 284.911 246.827,285.624 248.120,286.177 249.000 C 287.370 250.901,288.514 252.812,289.767 255.000 C 290.271 255.880,291.072 257.230,291.546 258.000 C 292.019 258.770,292.771 260.158,293.215 261.083 C 293.659 262.009,294.200 262.877,294.417 263.011 C 294.635 263.145,295.081 263.827,295.409 264.527 C 295.737 265.227,296.442 266.520,296.976 267.400 C 297.510 268.280,298.321 269.630,298.778 270.400 C 299.760 272.055,300.258 272.880,301.503 274.914 C 302.935 277.253,303.307 277.200,285.598 277.200 L 269.243 277.200 267.917 275.100 C 267.187 273.945,266.364 272.640,266.088 272.200 C 265.811 271.760,265.363 270.950,265.091 270.400 C 264.613 269.432,264.072 268.545,262.165 265.600 C 261.667 264.830,260.816 263.356,260.274 262.325 C 259.733 261.293,258.954 259.942,258.545 259.323 C 257.090 257.123,256.777 256.584,256.147 255.200 C 255.797 254.430,255.374 253.710,255.209 253.600 C 255.043 253.490,254.517 252.680,254.039 251.800 C 253.561 250.920,252.733 249.480,252.199 248.600 C 251.665 247.720,250.946 246.460,250.600 245.800 C 250.255 245.140,249.355 243.610,248.602 242.400 C 247.848 241.190,247.224 240.003,247.216 239.762 C 247.207 239.521,246.840 238.998,246.400 238.600 C 245.960 238.202,245.600 237.658,245.600 237.392 C 245.600 237.126,245.226 236.432,244.768 235.850 C 244.310 235.268,243.390 233.759,242.722 232.496 C 242.055 231.233,241.277 229.930,240.994 229.600 C 240.711 229.270,240.193 228.370,239.842 227.600 C 239.492 226.830,238.748 225.480,238.189 224.600 C 237.630 223.720,236.902 222.460,236.571 221.800 C 236.241 221.140,235.440 219.790,234.792 218.800 C 234.144 217.810,233.316 216.433,232.951 215.739 C 232.587 215.045,231.855 214.280,231.326 214.039 C 230.128 213.493,215.255 213.451,214.400 213.991 C 213.878 214.321,213.774 218.433,213.600 245.685 L 213.400 277.000 199.353 277.105 C 187.830 277.191,185.224 277.111,184.850 276.660 C 184.068 275.718,184.415 123.688,185.200 123.192 C 186.583 122.317,250.354 122.690,257.400 123.613 M214.044 152.947 C 213.719 153.339,213.620 157.899,213.695 169.047 L 213.800 184.600 234.917 184.704 L 256.035 184.807 258.156 183.804 C 259.323 183.252,260.485 182.800,260.739 182.800 C 261.694 182.800,266.039 177.938,267.091 175.691 C 268.482 172.718,268.693 165.681,267.470 163.000 C 262.910 153.000,261.014 152.407,233.549 152.403 C 217.925 152.401,214.416 152.498,214.044 152.947 M257.725 154.067 C 258.092 154.434,258.963 154.860,259.661 155.013 C 261.397 155.395,266.400 160.457,266.400 161.832 C 266.400 162.379,266.694 163.495,267.053 164.313 C 267.961 166.381,267.972 171.766,267.072 173.480 C 266.702 174.184,266.400 175.129,266.400 175.580 C 266.400 176.031,266.040 176.760,265.600 177.200 C 265.160 177.640,264.798 178.135,264.796 178.300 C 264.789 178.750,262.302 181.030,261.500 181.321 C 261.115 181.461,260.800 181.752,260.800 181.969 C 260.800 182.186,260.129 182.490,259.308 182.644 C 258.488 182.798,257.273 183.255,256.608 183.660 C 255.476 184.351,254.108 184.397,234.900 184.399 L 214.400 184.400 214.400 169.033 C 214.400 157.121,214.512 153.619,214.900 153.453 C 216.373 152.824,257.065 153.408,257.725 154.067 " stroke="none" fill="#9fd9d5" fill-rule="evenodd"></path></g></svg>