<svg id="svg" version="1.1" xmlns="http://www.w3.org/2000/svg" xmlns:xlink="http://www.w3.org/1999/xlink" width="400" height="400" viewBox="0, 0, 400,400"><g id="svgg"><path id="path0" d="M138.881 55.279 C 138.508 55.652,138.400 85.596,138.400 188.442 L 138.400 321.125 140.269 322.362 C 141.296 323.043,142.393 323.600,142.705 323.600 C 143.018 323.600,143.731 323.960,144.291 324.400 C 144.850 324.840,145.529 325.200,145.800 325.200 C 146.071 325.200,146.721 325.533,147.246 325.939 C 147.771 326.345,148.682 326.796,149.272 326.940 C 149.862 327.083,150.605 327.462,150.924 327.781 C 151.243 328.100,152.020 328.483,152.652 328.633 C 153.283 328.782,154.160 329.222,154.600 329.609 C 155.040 329.997,155.970 330.434,156.667 330.581 C 157.363 330.728,158.026 331.091,158.140 331.387 C 158.253 331.683,158.943 332.055,159.673 332.214 C 160.403 332.374,161.429 332.841,161.954 333.252 C 162.479 333.663,163.129 334.000,163.400 334.000 C 163.671 334.000,164.352 334.362,164.914 334.804 C 165.475 335.245,166.481 335.716,167.147 335.849 C 167.814 335.983,168.666 336.431,169.042 336.846 C 169.417 337.261,170.118 337.600,170.600 337.600 C 171.082 337.600,171.802 337.960,172.200 338.400 C 172.598 338.840,173.211 339.203,173.562 339.206 C 173.913 339.209,174.650 339.473,175.200 339.792 C 175.750 340.112,176.945 340.724,177.856 341.153 C 178.767 341.583,179.632 342.129,179.780 342.367 C 179.927 342.605,180.452 342.800,180.946 342.800 C 181.440 342.800,182.455 343.250,183.200 343.800 C 183.945 344.350,184.853 344.800,185.216 344.800 C 185.579 344.800,186.183 345.139,186.558 345.554 C 186.934 345.969,187.786 346.417,188.453 346.551 C 189.119 346.684,190.125 347.155,190.686 347.596 C 191.248 348.038,191.970 348.400,192.291 348.400 C 192.611 348.400,193.331 348.760,193.891 349.200 C 194.450 349.640,195.244 350.000,195.654 350.000 C 196.064 350.000,196.742 350.342,197.159 350.759 C 197.577 351.177,198.464 351.638,199.132 351.785 C 199.799 351.932,200.558 352.309,200.819 352.623 C 201.080 352.937,201.992 353.382,202.847 353.613 C 203.701 353.843,204.400 354.190,204.400 354.384 C 204.400 354.579,205.075 354.955,205.900 355.220 C 206.725 355.484,207.670 355.926,208.000 356.200 C 208.330 356.474,209.275 356.916,210.100 357.180 C 210.925 357.445,211.600 357.821,211.600 358.016 C 211.600 358.210,212.299 358.557,213.153 358.787 C 214.008 359.018,214.915 359.457,215.170 359.764 C 215.424 360.070,216.093 360.437,216.657 360.578 C 217.220 360.720,218.164 361.193,218.756 361.631 C 219.348 362.068,220.365 362.465,221.016 362.513 L 222.200 362.600 222.303 339.728 L 222.407 316.856 221.522 316.575 C 221.035 316.421,220.391 316.048,220.091 315.748 C 219.790 315.447,219.062 315.087,218.472 314.947 C 217.882 314.807,217.130 314.465,216.800 314.186 C 216.470 313.908,215.570 313.395,214.800 313.048 C 214.030 312.700,213.130 312.255,212.800 312.057 C 211.284 311.150,203.751 307.596,203.349 307.598 C 203.101 307.599,202.698 307.360,202.455 307.066 C 202.211 306.772,201.298 306.296,200.427 306.009 C 199.555 305.721,198.757 305.264,198.653 304.993 C 198.549 304.723,197.838 304.384,197.072 304.240 C 196.307 304.096,195.470 303.725,195.213 303.415 C 194.955 303.105,194.232 302.739,193.605 302.601 C 192.979 302.464,192.063 302.002,191.572 301.575 C 191.080 301.149,190.369 300.800,189.993 300.800 C 189.616 300.800,188.879 300.466,188.354 300.058 C 187.829 299.650,186.725 299.096,185.900 298.827 C 185.075 298.558,184.400 298.201,184.400 298.033 C 184.400 297.865,183.667 297.486,182.771 297.190 C 179.232 296.022,179.601 309.087,179.594 184.646 C 179.591 124.121,179.456 74.395,179.294 74.144 C 179.132 73.894,178.235 73.460,177.300 73.181 C 176.365 72.902,175.600 72.536,175.600 72.368 C 175.600 72.200,174.925 71.842,174.100 71.573 C 173.275 71.304,172.171 70.750,171.646 70.342 C 171.121 69.934,170.401 69.594,170.046 69.588 C 169.691 69.581,168.680 69.132,167.800 68.590 C 166.920 68.048,165.907 67.603,165.549 67.602 C 165.191 67.601,164.675 67.331,164.402 67.002 C 164.128 66.673,163.206 66.194,162.353 65.939 C 161.499 65.683,160.800 65.336,160.800 65.168 C 160.800 65.000,160.125 64.642,159.300 64.373 C 158.475 64.104,157.371 63.550,156.846 63.142 C 156.321 62.734,155.581 62.400,155.200 62.400 C 154.819 62.400,154.079 62.067,153.554 61.661 C 153.029 61.255,152.074 60.793,151.432 60.636 C 150.789 60.479,149.820 60.002,149.278 59.575 C 148.736 59.149,147.978 58.800,147.595 58.800 C 147.212 58.800,146.682 58.539,146.417 58.220 C 146.152 57.902,145.275 57.423,144.468 57.157 C 143.661 56.891,142.550 56.357,142.000 55.971 C 140.582 54.973,139.440 54.720,138.881 55.279 " stroke="none" fill="#293184" fill-rule="evenodd"></path><path id="path1" d="M181.467 29.067 C 181.320 29.213,181.200 39.388,181.200 51.677 L 181.200 74.020 182.300 74.410 C 182.905 74.624,183.670 74.976,184.000 75.193 C 184.330 75.409,186.040 76.312,187.800 77.200 C 189.560 78.088,191.270 78.984,191.600 79.191 C 191.930 79.399,193.370 80.133,194.800 80.822 C 196.230 81.511,197.850 82.322,198.400 82.624 C 198.950 82.925,199.890 83.404,200.489 83.686 C 203.576 85.143,207.871 87.381,208.400 87.808 C 208.730 88.074,209.526 88.418,210.168 88.571 C 210.811 88.724,211.780 89.198,212.322 89.625 C 212.864 90.051,213.529 90.400,213.800 90.400 C 214.071 90.400,214.721 90.735,215.246 91.145 C 215.771 91.555,216.650 92.029,217.200 92.200 C 217.750 92.371,218.629 92.845,219.154 93.255 C 219.679 93.665,220.454 94.000,220.876 94.000 C 221.299 94.000,222.175 94.580,222.823 95.289 L 224.000 96.578 224.000 206.217 L 224.000 315.856 224.904 316.628 C 225.401 317.053,227.786 318.361,230.204 319.536 C 232.622 320.711,234.870 321.838,235.200 322.039 C 235.530 322.240,236.430 322.696,237.200 323.051 C 237.970 323.406,238.870 323.857,239.200 324.054 C 239.530 324.250,240.545 324.753,241.456 325.172 C 242.367 325.591,243.232 326.129,243.380 326.367 C 243.527 326.605,243.962 326.800,244.346 326.800 C 244.730 326.800,245.655 327.250,246.400 327.800 C 247.145 328.350,248.008 328.800,248.316 328.800 C 248.624 328.800,249.354 329.136,249.938 329.548 C 250.522 329.959,251.442 330.432,251.981 330.600 C 252.521 330.768,253.209 331.152,253.509 331.452 C 253.810 331.753,254.538 332.113,255.128 332.253 C 255.718 332.393,256.470 332.735,256.800 333.014 C 257.130 333.292,258.030 333.805,258.800 334.152 C 259.570 334.500,260.470 334.937,260.800 335.125 C 262.714 336.211,264.139 336.794,264.354 336.579 C 264.489 336.444,264.600 276.379,264.600 203.100 L 264.600 69.868 262.000 68.558 C 260.570 67.838,259.183 67.057,258.917 66.824 C 258.651 66.591,258.261 66.400,258.049 66.400 C 257.715 66.400,253.741 64.408,251.076 62.906 C 250.594 62.634,249.896 62.409,249.524 62.406 C 249.152 62.403,248.747 62.237,248.624 62.039 C 248.318 61.543,242.867 58.800,242.188 58.800 C 241.886 58.800,241.496 58.555,241.320 58.257 C 241.144 57.958,240.339 57.498,239.532 57.236 C 238.725 56.974,237.848 56.498,237.583 56.180 C 237.318 55.861,236.897 55.600,236.646 55.600 C 236.142 55.600,227.953 51.579,227.123 50.923 C 226.835 50.696,226.138 50.400,225.574 50.266 C 225.009 50.132,224.127 49.657,223.613 49.211 C 223.098 48.765,222.369 48.400,221.993 48.400 C 221.616 48.400,220.879 48.065,220.354 47.655 C 219.829 47.245,218.950 46.771,218.400 46.600 C 217.850 46.429,216.971 45.955,216.446 45.545 C 215.921 45.135,215.262 44.800,214.980 44.800 C 214.698 44.800,213.327 44.171,211.934 43.401 C 210.540 42.632,208.995 41.822,208.500 41.601 C 208.005 41.381,207.195 41.020,206.700 40.801 C 206.205 40.581,205.530 40.241,205.200 40.044 C 204.870 39.847,204.150 39.488,203.600 39.246 C 203.050 39.004,202.330 38.637,202.000 38.431 C 201.670 38.225,200.001 37.390,198.292 36.576 C 196.582 35.762,195.095 34.954,194.987 34.779 C 194.879 34.604,194.272 34.347,193.637 34.208 C 193.002 34.069,192.166 33.605,191.779 33.177 C 191.393 32.750,190.678 32.400,190.192 32.400 C 189.706 32.400,188.864 32.051,188.322 31.625 C 187.780 31.198,186.869 30.732,186.298 30.589 C 185.726 30.445,184.948 29.984,184.567 29.564 C 183.899 28.825,182.011 28.522,181.467 29.067 " stroke="none" fill="#04ab9c" fill-rule="evenodd"></path><path id="path2" d="M179.867 27.067 C 179.720 27.213,179.600 37.389,179.600 49.680 L 179.600 72.026 178.700 72.405 C 177.922 72.733,177.989 72.772,179.200 72.692 L 180.600 72.600 180.800 50.600 L 181.000 28.600 182.518 28.647 C 183.432 28.676,184.387 29.017,184.918 29.504 C 185.403 29.949,186.385 30.437,187.100 30.589 C 187.815 30.740,188.400 31.015,188.400 31.201 C 188.400 31.386,189.075 31.755,189.900 32.020 C 190.725 32.284,191.670 32.715,192.000 32.976 C 192.330 33.238,194.580 34.407,197.000 35.575 C 199.420 36.743,201.670 37.852,202.000 38.040 C 202.330 38.228,203.950 39.027,205.600 39.815 C 207.250 40.603,208.870 41.421,209.200 41.632 C 209.530 41.843,210.430 42.300,211.200 42.648 C 211.970 42.995,212.870 43.512,213.200 43.795 C 213.530 44.079,214.366 44.431,215.059 44.578 C 215.751 44.725,216.634 45.195,217.021 45.623 C 217.407 46.050,217.966 46.400,218.262 46.400 C 218.715 46.400,221.285 47.593,223.600 48.877 C 223.930 49.060,224.920 49.566,225.800 50.000 C 226.680 50.434,227.670 50.950,228.000 51.145 C 228.330 51.341,230.726 52.549,233.325 53.829 C 235.924 55.110,238.131 56.289,238.230 56.448 C 238.328 56.608,238.932 56.853,239.572 56.994 C 240.211 57.134,241.137 57.598,241.628 58.025 C 242.120 58.451,242.831 58.800,243.207 58.800 C 243.584 58.800,244.321 59.135,244.846 59.545 C 245.371 59.955,246.250 60.428,246.800 60.597 C 247.350 60.767,248.278 61.241,248.862 61.652 C 249.446 62.064,250.186 62.400,250.508 62.400 C 250.829 62.400,251.521 62.735,252.046 63.145 C 252.571 63.555,253.450 64.029,254.000 64.200 C 254.550 64.371,255.429 64.845,255.954 65.255 C 256.479 65.665,257.219 66.000,257.600 66.000 C 257.981 66.000,258.721 66.335,259.246 66.745 C 259.771 67.155,260.646 67.630,261.191 67.801 C 261.735 67.972,262.768 68.491,263.486 68.956 L 264.790 69.800 264.795 203.276 C 264.798 276.688,264.651 336.845,264.469 336.957 C 264.158 337.149,260.846 335.647,259.855 334.864 C 259.605 334.666,258.725 334.287,257.900 334.021 C 257.075 333.755,256.400 333.379,256.400 333.184 C 256.400 332.990,255.701 332.643,254.847 332.413 C 253.992 332.182,253.080 331.737,252.819 331.423 C 252.558 331.109,251.819 330.736,251.177 330.595 C 250.535 330.454,249.910 330.177,249.788 329.980 C 249.666 329.783,247.189 328.438,244.283 326.991 C 241.377 325.543,237.740 323.716,236.200 322.931 C 234.660 322.146,233.085 321.345,232.700 321.151 C 232.315 320.958,231.685 320.620,231.300 320.400 C 230.915 320.180,230.150 319.811,229.600 319.579 C 229.050 319.348,227.790 318.737,226.800 318.222 C 223.422 316.465,223.600 315.191,223.600 341.075 C 223.600 365.997,223.745 364.683,221.112 363.689 C 220.108 363.310,220.010 363.330,220.420 363.824 C 221.022 364.550,223.356 364.576,223.948 363.863 C 224.261 363.486,224.424 356.669,224.497 340.963 L 224.600 318.600 225.791 318.741 C 226.446 318.818,227.204 319.199,227.476 319.588 C 227.749 319.976,228.532 320.406,229.218 320.544 C 229.904 320.681,230.925 321.155,231.486 321.596 C 232.048 322.038,232.822 322.400,233.205 322.400 C 233.588 322.400,234.125 322.669,234.398 322.998 C 234.672 323.327,235.612 323.811,236.489 324.074 C 237.366 324.337,238.170 324.776,238.275 325.051 C 238.381 325.326,239.010 325.670,239.674 325.816 C 240.338 325.962,241.223 326.423,241.641 326.841 C 242.058 327.258,242.736 327.600,243.146 327.600 C 243.556 327.600,244.336 327.949,244.878 328.375 C 245.420 328.802,246.389 329.281,247.032 329.441 C 247.674 329.602,248.380 329.953,248.600 330.222 C 248.820 330.491,249.675 330.926,250.500 331.187 C 251.325 331.448,252.000 331.814,252.000 332.000 C 252.000 332.186,252.675 332.558,253.500 332.827 C 254.325 333.096,255.429 333.650,255.954 334.058 C 256.479 334.466,257.216 334.800,257.592 334.800 C 257.968 334.800,258.599 335.156,258.993 335.592 C 259.387 336.028,260.315 336.498,261.055 336.637 C 261.795 336.775,262.400 337.043,262.400 337.230 C 262.400 337.940,263.971 338.444,264.800 338.000 C 265.598 337.573,265.600 337.162,265.600 203.440 L 265.600 69.309 264.100 68.294 C 263.275 67.737,262.150 67.147,261.600 66.985 C 261.050 66.823,260.171 66.355,259.646 65.945 C 259.121 65.535,258.384 65.200,258.008 65.200 C 257.632 65.200,257.014 64.858,256.636 64.440 C 256.257 64.021,255.329 63.563,254.574 63.421 C 253.818 63.280,253.200 63.021,253.200 62.846 C 253.200 62.426,251.359 61.600,250.424 61.600 C 250.018 61.600,249.589 61.348,249.471 61.040 C 249.353 60.732,248.568 60.257,247.728 59.984 C 246.888 59.710,246.068 59.263,245.906 58.989 C 245.744 58.715,244.969 58.371,244.185 58.224 C 243.400 58.076,242.662 57.707,242.546 57.402 C 242.429 57.098,241.763 56.728,241.067 56.581 C 240.370 56.434,239.440 55.997,239.000 55.609 C 238.560 55.222,237.700 54.787,237.090 54.642 C 236.479 54.498,235.624 54.024,235.190 53.590 C 234.755 53.155,233.978 52.800,233.462 52.800 C 232.946 52.800,232.214 52.458,231.836 52.040 C 231.457 51.621,230.547 51.167,229.812 51.029 C 229.078 50.891,228.389 50.547,228.280 50.265 C 228.172 49.983,227.366 49.537,226.489 49.274 C 225.612 49.011,224.672 48.527,224.398 48.198 C 224.125 47.869,223.609 47.594,223.251 47.588 C 222.893 47.581,221.880 47.132,221.000 46.590 C 220.120 46.048,219.094 45.603,218.720 45.602 C 218.346 45.601,217.896 45.355,217.720 45.057 C 217.544 44.758,216.739 44.298,215.932 44.036 C 215.125 43.774,214.248 43.298,213.983 42.980 C 213.718 42.661,213.199 42.400,212.829 42.400 C 212.458 42.400,211.545 41.950,210.800 41.400 C 210.055 40.850,209.057 40.400,208.584 40.400 C 208.111 40.400,207.407 40.050,207.021 39.623 C 206.634 39.195,205.777 38.727,205.118 38.582 C 204.458 38.437,203.577 37.977,203.159 37.559 C 202.742 37.142,202.064 36.800,201.654 36.800 C 201.244 36.800,200.479 36.465,199.954 36.055 C 199.429 35.645,198.550 35.174,198.000 35.008 C 197.450 34.841,196.730 34.479,196.400 34.203 C 196.070 33.927,195.125 33.484,194.300 33.220 C 193.475 32.955,192.800 32.579,192.800 32.384 C 192.800 32.190,192.101 31.843,191.247 31.613 C 190.392 31.382,189.474 30.930,189.206 30.608 C 188.939 30.285,188.093 29.904,187.328 29.760 C 186.562 29.616,185.845 29.260,185.733 28.969 C 185.621 28.677,184.870 28.228,184.065 27.971 C 183.259 27.714,182.429 27.345,182.220 27.152 C 181.773 26.738,180.250 26.683,179.867 27.067 M137.280 53.680 C 136.909 54.051,136.800 84.394,136.800 187.813 L 136.800 321.466 138.300 322.667 C 139.125 323.328,140.340 323.983,141.000 324.124 C 142.170 324.372,142.175 324.367,141.200 323.909 C 140.650 323.651,139.525 322.920,138.699 322.286 L 137.199 321.132 137.299 187.466 L 137.400 53.800 138.276 53.675 C 138.758 53.607,139.608 53.849,140.164 54.213 C 140.719 54.577,141.405 54.782,141.687 54.669 C 142.029 54.532,141.983 54.453,141.549 54.432 C 141.191 54.414,140.674 54.130,140.400 53.800 C 139.803 53.081,137.951 53.009,137.280 53.680 M143.256 55.566 C 143.775 55.987,144.271 56.261,144.357 56.175 C 144.650 55.885,143.506 54.800,142.907 54.800 C 142.501 54.800,142.612 55.044,143.256 55.566 M145.992 56.812 C 146.537 57.049,147.292 57.521,147.669 57.862 C 148.045 58.203,148.589 58.388,148.877 58.273 C 149.225 58.133,149.173 58.053,148.720 58.032 C 148.346 58.014,147.896 57.744,147.720 57.432 C 147.544 57.119,146.860 56.755,146.200 56.623 C 145.059 56.393,145.049 56.403,145.992 56.812 M150.509 59.200 C 151.069 59.640,151.661 60.000,151.825 60.000 C 151.989 60.000,151.798 59.640,151.400 59.200 C 151.002 58.760,150.410 58.400,150.084 58.400 C 149.703 58.400,149.855 58.685,150.509 59.200 M153.600 60.683 C 155.002 61.440,155.675 61.508,154.973 60.822 C 154.768 60.621,154.060 60.338,153.400 60.192 C 152.212 59.930,152.214 59.935,153.600 60.683 M157.400 62.554 C 159.793 63.802,160.025 63.849,158.722 62.825 C 158.180 62.398,157.211 61.928,156.568 61.780 C 155.746 61.591,155.993 61.820,157.400 62.554 M160.800 64.020 C 162.581 65.229,163.049 65.371,162.238 64.458 C 161.819 63.986,161.189 63.603,160.838 63.606 C 160.279 63.611,160.274 63.663,160.800 64.020 M164.099 65.778 C 164.703 66.093,165.376 66.462,165.594 66.596 C 165.817 66.734,165.893 66.586,165.768 66.260 C 165.645 65.940,165.152 65.574,164.672 65.445 C 163.184 65.046,162.952 65.180,164.099 65.778 M167.400 67.284 C 168.060 67.515,168.884 67.951,169.231 68.252 C 170.086 68.994,170.609 68.951,169.859 68.202 C 169.204 67.547,167.425 66.782,166.674 66.832 C 166.413 66.849,166.740 67.052,167.400 67.284 M171.200 69.084 C 171.530 69.205,172.115 69.579,172.500 69.914 C 172.920 70.280,173.200 70.345,173.200 70.076 C 173.200 69.562,171.906 68.785,171.126 68.832 C 170.763 68.853,170.786 68.932,171.200 69.084 M176.109 71.600 C 176.669 72.040,177.231 72.400,177.359 72.400 C 177.487 72.400,177.284 72.040,176.907 71.600 C 176.530 71.160,175.968 70.800,175.657 70.800 C 175.321 70.800,175.504 71.124,176.109 71.600 M180.667 75.067 C 180.520 75.213,180.400 124.541,180.400 184.683 L 180.400 294.032 181.275 295.216 C 182.408 296.748,183.117 296.769,182.027 295.238 L 181.200 294.077 181.200 185.412 C 181.200 107.970,181.325 76.514,181.635 75.935 L 182.069 75.123 182.817 75.926 C 183.228 76.367,184.125 76.852,184.809 77.002 C 185.494 77.152,186.149 77.524,186.266 77.827 C 186.382 78.130,187.078 78.491,187.812 78.629 C 188.547 78.767,189.448 79.211,189.815 79.617 C 190.183 80.023,191.023 80.473,191.682 80.618 C 192.342 80.763,193.223 81.223,193.641 81.641 C 194.058 82.058,194.856 82.400,195.413 82.400 C 195.969 82.400,196.525 82.661,196.648 82.981 C 196.770 83.300,197.530 83.773,198.335 84.031 C 199.141 84.290,200.070 84.727,200.400 85.003 C 200.730 85.279,201.450 85.637,202.000 85.799 C 202.550 85.960,203.360 86.412,203.800 86.803 C 204.240 87.194,205.185 87.637,205.900 87.789 C 206.615 87.940,207.200 88.215,207.200 88.401 C 207.200 88.586,207.875 88.958,208.700 89.227 C 209.525 89.496,210.629 90.050,211.154 90.458 C 211.679 90.866,212.329 91.200,212.600 91.200 C 212.871 91.200,213.550 91.560,214.109 92.000 C 214.669 92.440,215.378 92.800,215.685 92.800 C 215.993 92.800,216.855 93.250,217.600 93.800 C 218.345 94.350,219.289 94.800,219.697 94.800 C 220.105 94.800,220.880 95.276,221.419 95.858 L 222.400 96.917 222.400 205.226 C 222.400 264.796,222.291 313.818,222.158 314.164 C 221.986 314.613,221.611 314.725,220.858 314.554 C 219.523 314.251,220.781 315.308,222.560 315.985 L 223.600 316.380 223.587 206.490 C 223.572 83.036,223.887 95.402,220.727 94.324 C 219.997 94.076,218.971 93.541,218.446 93.136 C 217.921 92.731,217.184 92.400,216.808 92.400 C 216.432 92.400,215.807 92.050,215.421 91.623 C 215.034 91.195,214.211 90.734,213.591 90.598 C 212.972 90.462,212.063 90.002,211.572 89.575 C 211.080 89.149,210.369 88.800,209.993 88.800 C 209.616 88.800,208.864 88.451,208.322 88.025 C 207.780 87.598,206.863 87.131,206.285 86.986 C 205.706 86.840,205.031 86.478,204.784 86.181 C 204.538 85.884,203.675 85.428,202.868 85.168 C 202.061 84.908,201.194 84.533,200.942 84.334 C 200.690 84.134,198.376 82.904,195.800 81.600 C 193.224 80.296,190.910 79.072,190.658 78.881 C 190.406 78.690,189.570 78.294,188.800 78.001 C 188.030 77.708,187.116 77.228,186.769 76.934 C 186.421 76.640,185.860 76.400,185.522 76.400 C 185.184 76.400,184.450 76.040,183.891 75.600 C 182.896 74.817,181.197 74.536,180.667 75.067 M184.000 296.684 C 184.330 296.805,184.915 297.179,185.300 297.514 C 186.170 298.272,186.227 297.884,185.371 297.029 C 185.026 296.683,184.441 296.414,184.071 296.432 C 183.523 296.457,183.510 296.504,184.000 296.684 M188.478 299.175 C 189.020 299.602,189.989 300.076,190.632 300.229 C 191.274 300.382,192.123 300.788,192.517 301.131 C 193.171 301.700,193.212 301.696,192.976 301.082 C 192.834 300.712,192.037 300.225,191.205 300.001 C 190.374 299.778,189.470 299.326,189.198 298.997 C 188.925 298.669,188.430 298.400,188.097 298.400 C 187.688 298.400,187.811 298.651,188.478 299.175 M194.600 302.084 C 195.260 302.315,196.084 302.751,196.431 303.052 C 196.779 303.353,197.219 303.600,197.409 303.600 C 197.600 303.600,197.145 303.150,196.400 302.600 C 195.655 302.050,194.675 301.614,194.222 301.632 C 193.600 301.655,193.692 301.766,194.600 302.084 M199.600 304.600 C 200.345 305.150,201.258 305.600,201.629 305.600 C 201.999 305.600,202.526 305.870,202.800 306.200 C 203.074 306.530,203.501 306.794,203.749 306.787 C 204.480 306.765,202.378 305.200,201.618 305.200 C 201.236 305.200,200.598 304.840,200.200 304.400 C 199.802 303.960,199.199 303.600,198.860 303.600 C 198.503 303.600,198.814 304.020,199.600 304.600 M205.242 307.304 C 205.815 307.577,206.584 308.051,206.951 308.357 C 207.319 308.663,207.721 308.813,207.844 308.689 C 208.143 308.391,206.460 307.345,205.200 307.046 L 204.200 306.808 205.242 307.304 M209.125 309.222 C 209.634 309.426,210.321 309.864,210.653 310.196 C 210.985 310.528,211.559 310.786,211.929 310.768 C 212.479 310.743,212.492 310.696,212.000 310.509 C 211.670 310.383,210.971 309.947,210.446 309.540 C 209.921 309.133,209.201 308.811,208.846 308.825 C 208.427 308.842,208.525 308.981,209.125 309.222 M213.709 311.600 C 214.269 312.040,214.861 312.400,215.025 312.400 C 215.189 312.400,214.998 312.040,214.600 311.600 C 214.202 311.160,213.610 310.800,213.284 310.800 C 212.903 310.800,213.055 311.085,213.709 311.600 M216.000 312.728 C 216.330 312.878,217.089 313.332,217.687 313.738 C 218.285 314.143,219.005 314.382,219.287 314.269 C 219.635 314.129,219.595 314.053,219.162 314.032 C 218.811 314.014,218.198 313.640,217.800 313.200 C 217.402 312.760,216.699 312.413,216.238 312.428 C 215.612 312.449,215.552 312.525,216.000 312.728 M142.400 324.713 C 142.400 325.115,144.158 326.000,144.957 326.000 C 145.242 326.000,145.802 326.360,146.200 326.800 C 146.598 327.240,147.201 327.600,147.540 327.600 C 147.897 327.600,147.586 327.180,146.800 326.600 C 146.055 326.050,145.160 325.600,144.811 325.600 C 144.463 325.600,143.778 325.320,143.289 324.977 C 142.800 324.635,142.400 324.516,142.400 324.713 M148.800 327.806 C 148.800 328.167,151.376 329.598,152.000 329.583 C 152.330 329.575,152.037 329.324,151.348 329.024 C 150.659 328.724,149.974 328.281,149.824 328.040 C 149.550 327.596,148.800 327.425,148.800 327.806 M152.800 329.951 C 152.800 330.373,155.138 331.395,155.431 331.102 C 155.545 330.989,155.179 330.781,154.619 330.640 C 154.058 330.500,153.600 330.208,153.600 329.992 C 153.600 329.777,153.420 329.600,153.200 329.600 C 152.980 329.600,152.800 329.758,152.800 329.951 M156.744 331.977 C 157.264 332.430,157.894 332.797,158.144 332.794 C 158.622 332.787,157.957 332.258,156.600 331.564 C 155.971 331.242,156.002 331.331,156.744 331.977 M159.990 333.590 C 160.424 334.024,161.279 334.483,161.890 334.610 C 162.961 334.832,162.956 334.819,161.748 334.259 C 161.059 333.940,160.374 333.481,160.224 333.240 C 160.075 332.998,159.783 332.800,159.576 332.800 C 159.369 332.800,159.555 333.155,159.990 333.590 M163.800 335.600 C 164.198 336.040,164.790 336.400,165.116 336.400 C 165.497 336.400,165.345 336.115,164.691 335.600 C 164.131 335.160,163.539 334.800,163.375 334.800 C 163.211 334.800,163.402 335.160,163.800 335.600 M167.200 337.183 C 167.200 337.588,169.049 338.520,169.508 338.346 C 169.720 338.266,169.288 337.908,168.547 337.551 C 167.806 337.193,167.200 337.028,167.200 337.183 M171.000 339.200 C 171.398 339.640,171.990 340.000,172.316 340.000 C 172.697 340.000,172.545 339.715,171.891 339.200 C 171.331 338.760,170.739 338.400,170.575 338.400 C 170.411 338.400,170.602 338.760,171.000 339.200 M173.859 340.397 C 174.332 340.588,174.837 340.937,174.983 341.172 C 175.128 341.407,175.462 341.594,175.724 341.587 C 175.986 341.579,175.775 341.219,175.256 340.787 C 174.736 340.354,174.016 340.011,173.656 340.025 C 173.185 340.044,173.243 340.149,173.859 340.397 M177.014 341.981 C 177.462 342.162,178.069 342.601,178.363 342.955 C 178.657 343.310,179.281 343.586,179.749 343.568 C 180.340 343.546,180.417 343.467,180.000 343.309 C 179.670 343.183,178.971 342.747,178.446 342.340 C 177.921 341.933,177.201 341.611,176.846 341.625 C 176.370 341.644,176.414 341.738,177.014 341.981 M181.280 344.137 C 181.998 344.855,183.424 345.600,184.074 345.598 C 184.363 345.597,183.880 345.152,183.000 344.610 C 181.234 343.523,180.450 343.307,181.280 344.137 M184.800 345.951 C 184.800 346.373,187.138 347.395,187.431 347.102 C 187.545 346.989,187.179 346.781,186.619 346.640 C 186.058 346.500,185.600 346.208,185.600 345.992 C 185.600 345.777,185.420 345.600,185.200 345.600 C 184.980 345.600,184.800 345.758,184.800 345.951 M188.744 348.013 C 189.264 348.446,189.873 348.800,190.098 348.800 C 190.324 348.800,190.050 348.440,189.491 348.000 C 188.176 346.966,187.502 346.978,188.744 348.013 M192.400 349.800 C 193.145 350.350,194.035 350.786,194.378 350.768 C 194.917 350.741,194.920 350.706,194.400 350.509 C 194.070 350.383,193.371 349.947,192.846 349.540 C 192.321 349.133,191.701 348.800,191.468 348.800 C 191.235 348.800,191.655 349.250,192.400 349.800 M195.944 351.613 C 196.464 352.046,197.073 352.400,197.298 352.400 C 197.524 352.400,197.250 352.040,196.691 351.600 C 195.376 350.566,194.702 350.578,195.944 351.613 M199.600 353.400 C 200.345 353.950,201.235 354.386,201.578 354.368 C 202.117 354.341,202.120 354.306,201.600 354.109 C 201.270 353.983,200.571 353.547,200.046 353.140 C 199.521 352.733,198.901 352.400,198.668 352.400 C 198.435 352.400,198.855 352.850,199.600 353.400 M203.144 355.213 C 203.664 355.646,204.384 355.989,204.744 355.975 C 205.215 355.956,205.157 355.851,204.541 355.603 C 204.068 355.412,203.563 355.063,203.417 354.828 C 203.272 354.593,202.938 354.406,202.676 354.413 C 202.414 354.421,202.625 354.781,203.144 355.213 M206.509 356.800 C 207.069 357.240,207.678 357.594,207.863 357.587 C 208.339 357.568,206.400 356.000,205.902 356.000 C 205.676 356.000,205.950 356.360,206.509 356.800 M208.800 357.891 C 209.130 358.017,209.829 358.453,210.354 358.860 C 210.879 359.267,211.599 359.599,211.954 359.598 C 212.309 359.597,211.880 359.152,211.000 358.610 C 210.120 358.068,209.130 357.634,208.800 357.644 C 208.267 357.661,208.267 357.689,208.800 357.891 M213.341 360.198 C 213.958 360.815,215.719 361.600,216.486 361.600 C 216.724 361.600,216.073 361.150,215.038 360.600 C 212.871 359.448,212.504 359.361,213.341 360.198 M217.200 361.924 C 217.200 362.505,218.704 363.309,219.322 363.058 C 219.638 362.929,219.607 362.852,219.231 362.832 C 218.919 362.814,218.334 362.502,217.931 362.138 C 217.519 361.765,217.200 361.671,217.200 361.924 " stroke="none" fill="#a3d9d3" fill-rule="evenodd"></path><path id="path3" d="M180.987 28.900 C 180.884 29.175,180.755 39.120,180.700 51.000 L 180.600 72.600 178.951 72.569 C 177.901 72.550,176.901 72.223,176.197 71.669 C 175.589 71.191,174.781 70.800,174.400 70.800 C 174.019 70.800,173.264 70.451,172.722 70.025 C 172.180 69.598,171.263 69.131,170.685 68.986 C 170.106 68.840,169.423 68.469,169.167 68.161 C 168.911 67.852,168.475 67.600,168.197 67.600 C 167.919 67.600,165.916 66.717,163.746 65.639 C 161.576 64.560,158.000 62.836,155.800 61.807 C 153.600 60.778,151.530 59.769,151.200 59.565 C 150.870 59.361,150.150 58.996,149.600 58.754 C 149.050 58.512,148.330 58.150,148.000 57.949 C 147.670 57.748,146.770 57.313,146.000 56.982 C 145.230 56.651,144.330 56.204,144.000 55.987 C 143.670 55.771,142.950 55.398,142.400 55.158 C 141.850 54.919,140.836 54.453,140.146 54.123 C 139.456 53.793,138.556 53.588,138.146 53.667 C 137.420 53.807,137.397 57.395,137.299 187.485 L 137.199 321.158 138.499 322.149 C 140.070 323.346,144.293 325.600,144.963 325.600 C 145.228 325.600,146.055 326.050,146.800 326.600 C 147.545 327.150,148.458 327.600,148.829 327.600 C 149.199 327.600,149.718 327.861,149.983 328.180 C 150.248 328.498,151.125 328.974,151.932 329.238 C 152.739 329.501,153.490 329.828,153.600 329.966 C 153.710 330.104,155.060 330.816,156.600 331.550 C 158.140 332.283,159.670 333.048,160.000 333.250 C 160.330 333.451,161.230 333.887,162.000 334.218 C 162.770 334.549,163.670 334.991,164.000 335.201 C 164.330 335.411,165.950 336.227,167.600 337.015 C 169.250 337.803,170.870 338.619,171.200 338.827 C 171.530 339.035,172.205 339.385,172.700 339.603 C 173.195 339.821,174.005 340.179,174.500 340.397 C 174.995 340.615,175.670 340.956,176.000 341.154 C 176.330 341.352,177.050 341.712,177.600 341.954 C 178.150 342.196,178.870 342.559,179.200 342.760 C 179.530 342.961,181.060 343.727,182.600 344.462 C 184.140 345.198,185.457 345.925,185.526 346.078 C 185.595 346.230,186.315 346.571,187.126 346.836 C 187.937 347.100,189.029 347.650,189.554 348.058 C 190.079 348.466,190.819 348.800,191.200 348.800 C 191.581 348.800,192.321 349.135,192.846 349.545 C 193.371 349.955,194.250 350.429,194.800 350.600 C 195.350 350.771,196.229 351.245,196.754 351.655 C 197.279 352.065,198.019 352.400,198.400 352.400 C 198.781 352.400,199.521 352.735,200.046 353.145 C 200.571 353.555,201.450 354.026,202.000 354.192 C 202.550 354.359,203.270 354.721,203.600 354.997 C 203.930 355.273,204.861 355.711,205.668 355.970 C 206.475 356.229,207.352 356.702,207.617 357.020 C 207.882 357.339,208.296 357.600,208.538 357.600 C 208.780 357.600,211.019 358.635,213.514 359.900 C 216.009 361.165,218.872 362.614,219.877 363.121 C 220.882 363.627,222.086 363.987,222.552 363.921 L 223.400 363.800 223.503 341.228 C 223.611 317.826,223.710 316.479,225.253 317.433 C 225.444 317.551,225.600 317.500,225.600 317.320 C 225.600 317.140,225.240 316.768,224.800 316.493 C 224.003 315.995,224.000 315.560,224.000 206.286 L 224.000 96.578 222.823 95.289 C 222.175 94.580,221.320 94.014,220.923 94.032 C 220.392 94.055,220.466 94.165,221.200 94.445 C 223.827 95.449,223.612 84.957,223.501 206.598 L 223.400 316.443 221.479 315.421 C 220.422 314.860,219.321 314.400,219.033 314.400 C 218.744 314.400,218.064 314.051,217.522 313.625 C 216.980 313.198,216.063 312.731,215.485 312.586 C 214.906 312.440,214.224 312.070,213.970 311.764 C 213.715 311.457,212.808 311.018,211.953 310.787 C 211.099 310.557,210.400 310.210,210.400 310.016 C 210.400 309.821,209.725 309.445,208.900 309.180 C 208.075 308.916,207.130 308.481,206.800 308.215 C 206.470 307.949,205.570 307.492,204.800 307.200 C 204.030 306.908,203.116 306.428,202.769 306.134 C 202.421 305.840,201.871 305.600,201.546 305.600 C 201.221 305.600,200.345 305.150,199.600 304.600 C 198.855 304.050,197.942 303.600,197.571 303.600 C 197.201 303.600,196.683 303.342,196.421 303.026 C 196.159 302.710,195.426 302.337,194.791 302.198 C 194.157 302.059,193.224 301.621,192.719 301.224 C 192.213 300.828,191.217 300.377,190.505 300.221 C 189.792 300.066,189.097 299.757,188.961 299.536 C 188.824 299.315,187.967 298.783,187.056 298.353 C 186.145 297.924,184.950 297.312,184.400 296.992 C 183.850 296.673,183.119 296.409,182.775 296.406 C 182.432 296.403,181.756 295.867,181.275 295.215 L 180.399 294.030 180.499 184.519 L 180.600 75.008 181.800 74.789 C 182.907 74.586,182.930 74.550,182.097 74.321 L 181.193 74.073 181.297 51.555 L 181.400 29.036 182.400 28.758 L 183.400 28.480 182.287 28.440 C 181.676 28.418,181.090 28.625,180.987 28.900 M188.344 31.613 C 188.864 32.046,189.584 32.386,189.944 32.368 C 190.305 32.351,190.105 32.156,189.500 31.935 C 188.895 31.714,188.400 31.368,188.400 31.167 C 188.400 30.965,188.175 30.806,187.900 30.813 C 187.625 30.821,187.825 31.181,188.344 31.613 M198.200 36.590 C 199.080 37.132,199.980 37.580,200.200 37.585 C 200.420 37.591,199.880 37.152,199.000 36.610 C 198.120 36.068,197.220 35.620,197.000 35.615 C 196.780 35.609,197.320 36.048,198.200 36.590 M201.200 37.891 C 201.530 38.017,202.229 38.453,202.754 38.860 C 203.279 39.267,203.999 39.593,204.354 39.584 C 204.709 39.576,204.437 39.324,203.748 39.024 C 203.059 38.724,202.374 38.281,202.224 38.040 C 202.075 37.798,201.648 37.614,201.276 37.632 C 200.724 37.657,200.710 37.705,201.200 37.891 M208.269 41.393 C 208.968 41.714,209.653 42.162,209.793 42.389 C 209.933 42.615,210.241 42.800,210.478 42.800 C 211.177 42.800,209.088 41.332,208.000 41.059 C 207.271 40.876,207.344 40.967,208.269 41.393 M211.233 42.921 C 211.325 42.988,211.940 43.358,212.600 43.745 L 213.800 44.447 212.856 43.624 C 212.336 43.171,211.721 42.800,211.489 42.800 C 211.257 42.800,211.142 42.854,211.233 42.921 M220.344 47.576 C 220.864 48.029,221.479 48.400,221.711 48.400 C 222.203 48.400,222.179 48.380,220.600 47.455 L 219.400 46.753 220.344 47.576 M223.280 48.937 C 224.009 49.666,225.432 50.403,226.074 50.384 C 226.363 50.376,226.037 50.124,225.348 49.824 C 224.659 49.524,223.974 49.081,223.824 48.840 C 223.675 48.598,223.371 48.400,223.148 48.400 C 222.925 48.400,222.984 48.642,223.280 48.937 M230.162 52.600 C 231.196 53.150,232.168 53.594,232.321 53.588 C 232.841 53.564,229.404 51.604,228.840 51.602 C 228.533 51.601,229.127 52.050,230.162 52.600 M234.200 54.590 C 235.080 55.132,235.980 55.580,236.200 55.585 C 236.420 55.591,235.880 55.152,235.000 54.610 C 234.120 54.068,233.220 53.620,233.000 53.615 C 232.780 53.609,233.320 54.048,234.200 54.590 M142.000 55.971 C 142.550 56.357,143.661 56.891,144.468 57.157 C 145.275 57.423,146.152 57.902,146.417 58.220 C 146.682 58.539,147.212 58.800,147.595 58.800 C 147.978 58.800,148.736 59.149,149.278 59.575 C 149.820 60.002,150.789 60.479,151.432 60.636 C 152.074 60.793,153.029 61.255,153.554 61.661 C 154.079 62.067,154.819 62.400,155.200 62.400 C 155.581 62.400,156.321 62.734,156.846 63.142 C 157.371 63.550,158.475 64.104,159.300 64.373 C 160.125 64.642,160.800 65.000,160.800 65.168 C 160.800 65.336,161.499 65.683,162.353 65.939 C 163.206 66.194,164.128 66.673,164.402 67.002 C 164.675 67.331,165.191 67.601,165.549 67.602 C 165.907 67.603,166.920 68.048,167.800 68.590 C 168.680 69.132,169.691 69.581,170.046 69.588 C 170.401 69.594,171.121 69.934,171.646 70.342 C 172.171 70.750,173.275 71.304,174.100 71.573 C 174.925 71.842,175.600 72.200,175.600 72.368 C 175.600 72.536,176.365 72.902,177.300 73.181 C 178.235 73.460,179.132 73.894,179.294 74.144 C 179.456 74.395,179.591 124.121,179.594 184.646 C 179.601 309.087,179.232 296.022,182.771 297.190 C 183.667 297.486,184.400 297.865,184.400 298.033 C 184.400 298.201,185.075 298.558,185.900 298.827 C 186.725 299.096,187.829 299.650,188.354 300.058 C 188.879 300.466,189.616 300.800,189.993 300.800 C 190.369 300.800,191.080 301.149,191.572 301.575 C 192.063 302.002,192.979 302.464,193.605 302.601 C 194.232 302.739,194.955 303.105,195.213 303.415 C 195.470 303.725,196.307 304.096,197.072 304.240 C 197.838 304.384,198.549 304.723,198.653 304.993 C 198.757 305.264,199.555 305.721,200.427 306.009 C 201.298 306.296,202.211 306.772,202.455 307.066 C 202.698 307.360,203.101 307.599,203.349 307.598 C 203.751 307.596,211.284 311.150,212.800 312.057 C 213.130 312.255,214.030 312.700,214.800 313.048 C 215.570 313.395,216.470 313.908,216.800 314.186 C 217.130 314.465,217.882 314.807,218.472 314.947 C 219.062 315.087,219.790 315.447,220.091 315.748 C 220.391 316.048,221.035 316.421,221.522 316.575 L 222.407 316.856 222.303 339.728 L 222.200 362.600 221.016 362.513 C 220.365 362.465,219.348 362.068,218.756 361.631 C 218.164 361.193,217.220 360.720,216.657 360.578 C 216.093 360.437,215.424 360.070,215.170 359.764 C 214.915 359.457,214.008 359.018,213.153 358.787 C 212.299 358.557,211.600 358.210,211.600 358.016 C 211.600 357.821,210.925 357.445,210.100 357.180 C 209.275 356.916,208.330 356.474,208.000 356.200 C 207.670 355.926,206.725 355.484,205.900 355.220 C 205.075 354.955,204.400 354.579,204.400 354.384 C 204.400 354.190,203.701 353.843,202.847 353.613 C 201.992 353.382,201.080 352.937,200.819 352.623 C 200.558 352.309,199.799 351.932,199.132 351.785 C 198.464 351.638,197.577 351.177,197.159 350.759 C 196.742 350.342,196.064 350.000,195.654 350.000 C 195.244 350.000,194.450 349.640,193.891 349.200 C 193.331 348.760,192.611 348.400,192.291 348.400 C 191.970 348.400,191.248 348.038,190.686 347.596 C 190.125 347.155,189.119 346.684,188.453 346.551 C 187.786 346.417,186.934 345.969,186.558 345.554 C 186.183 345.139,185.579 344.800,185.216 344.800 C 184.853 344.800,183.945 344.350,183.200 343.800 C 182.455 343.250,181.440 342.800,180.946 342.800 C 180.452 342.800,179.927 342.605,179.780 342.367 C 179.632 342.129,178.767 341.583,177.856 341.153 C 176.945 340.724,175.750 340.112,175.200 339.792 C 174.650 339.473,173.913 339.209,173.562 339.206 C 173.211 339.203,172.598 338.840,172.200 338.400 C 171.802 337.960,171.082 337.600,170.600 337.600 C 170.118 337.600,169.417 337.261,169.042 336.846 C 168.666 336.431,167.814 335.983,167.147 335.849 C 166.481 335.716,165.475 335.245,164.914 334.804 C 164.352 334.362,163.671 334.000,163.400 334.000 C 163.129 334.000,162.479 333.663,161.954 333.252 C 161.429 332.841,160.403 332.374,159.673 332.214 C 158.943 332.055,158.253 331.683,158.140 331.387 C 158.026 331.091,157.363 330.728,156.667 330.581 C 155.970 330.434,155.040 329.997,154.600 329.609 C 154.160 329.222,153.283 328.782,152.652 328.633 C 152.020 328.483,151.243 328.100,150.924 327.781 C 150.605 327.462,149.862 327.083,149.272 326.940 C 148.682 326.796,147.771 326.345,147.246 325.939 C 146.721 325.533,146.071 325.200,145.800 325.200 C 145.529 325.200,144.850 324.840,144.291 324.400 C 143.731 323.960,143.018 323.600,142.705 323.600 C 142.393 323.600,141.296 323.043,140.269 322.362 L 138.400 321.125 138.400 188.442 C 138.400 85.596,138.508 55.652,138.881 55.279 C 139.440 54.720,140.582 54.973,142.000 55.971 M243.233 58.921 C 243.325 58.988,243.940 59.358,244.600 59.745 L 245.800 60.447 244.856 59.624 C 244.336 59.171,243.721 58.800,243.489 58.800 C 243.257 58.800,243.142 58.854,243.233 58.921 M248.109 61.600 C 248.669 62.040,249.278 62.396,249.463 62.391 C 249.900 62.380,247.913 60.821,247.446 60.809 C 247.251 60.804,247.550 61.160,248.109 61.600 M262.000 68.420 C 263.387 69.361,264.178 69.635,263.200 68.836 C 262.650 68.386,262.020 68.017,261.800 68.015 C 261.580 68.013,261.670 68.196,262.000 68.420 M183.944 75.613 C 184.464 76.046,185.073 76.400,185.298 76.400 C 185.524 76.400,185.250 76.040,184.691 75.600 C 183.376 74.566,182.702 74.578,183.944 75.613 M194.200 80.800 C 194.860 81.237,195.580 81.595,195.800 81.596 C 196.020 81.596,195.611 81.238,194.890 80.799 C 193.192 79.763,192.636 79.764,194.200 80.800 M200.800 84.200 C 201.074 84.530,201.478 84.800,201.698 84.800 C 201.921 84.800,201.878 84.535,201.600 84.200 C 201.326 83.870,200.922 83.600,200.702 83.600 C 200.479 83.600,200.522 83.865,200.800 84.200 M211.600 89.600 C 212.107 90.040,212.699 90.400,212.915 90.400 C 213.131 90.400,212.850 90.040,212.291 89.600 C 211.731 89.160,211.140 88.800,210.976 88.800 C 210.812 88.800,211.093 89.160,211.600 89.600 M215.362 91.500 C 215.781 91.995,216.411 92.386,216.762 92.368 C 217.304 92.342,217.309 92.303,216.800 92.116 C 216.470 91.995,215.840 91.604,215.400 91.248 C 214.607 90.606,214.606 90.608,215.362 91.500 M218.509 93.200 C 219.069 93.640,219.657 94.000,219.817 94.000 C 219.977 94.000,219.650 93.640,219.091 93.200 C 218.531 92.760,217.943 92.400,217.783 92.400 C 217.623 92.400,217.950 92.760,218.509 93.200 M232.000 320.764 C 232.550 321.214,233.180 321.583,233.400 321.585 C 233.828 321.588,233.105 321.034,231.800 320.360 C 231.269 320.085,231.336 320.221,232.000 320.764 M239.144 324.413 C 239.664 324.846,240.273 325.200,240.498 325.200 C 240.724 325.200,240.450 324.840,239.891 324.400 C 238.576 323.366,237.902 323.378,239.144 324.413 M241.600 325.620 C 243.072 326.619,243.813 326.857,242.856 326.023 C 242.336 325.570,241.706 325.203,241.456 325.206 C 241.205 325.209,241.270 325.396,241.600 325.620 M244.433 326.921 C 244.525 326.988,245.140 327.358,245.800 327.745 L 247.000 328.447 246.056 327.624 C 245.536 327.171,244.921 326.800,244.689 326.800 C 244.457 326.800,244.342 326.854,244.433 326.921 M249.309 329.600 C 249.869 330.040,250.478 330.396,250.663 330.391 C 251.100 330.380,249.113 328.821,248.646 328.809 C 248.451 328.804,248.750 329.160,249.309 329.600 M253.144 331.613 C 253.664 332.046,254.294 332.388,254.544 332.373 C 254.795 332.358,254.595 332.151,254.100 331.912 C 253.605 331.673,253.200 331.325,253.200 331.139 C 253.200 330.952,252.975 330.806,252.700 330.813 C 252.425 330.821,252.625 331.181,253.144 331.613 M256.400 333.200 C 256.907 333.640,257.499 334.000,257.715 334.000 C 257.931 334.000,257.650 333.640,257.091 333.200 C 256.531 332.760,255.940 332.400,255.776 332.400 C 255.612 332.400,255.893 332.760,256.400 333.200 M262.724 336.410 C 264.144 337.276,264.828 337.163,264.754 336.076 C 264.712 335.467,264.689 335.469,264.524 336.100 C 264.304 336.943,264.042 336.958,263.024 336.187 C 262.596 335.864,262.056 335.601,261.824 335.601 C 261.591 335.602,261.996 335.966,262.724 336.410 " stroke="none" fill="#9ca4c4" fill-rule="evenodd"></path><path id="path4" d="M0.000 200.000 L 0.000 400.000 200.000 400.000 L 400.000 400.000 400.000 200.000 L 400.000 0.000 200.000 0.000 L 0.000 0.000 0.000 200.000 M182.220 27.152 C 182.429 27.345,183.259 27.714,184.065 27.971 C 184.870 28.228,185.621 28.677,185.733 28.969 C 185.845 29.260,186.562 29.616,187.328 29.760 C 188.093 29.904,188.939 30.285,189.206 30.608 C 189.474 30.930,190.392 31.382,191.247 31.613 C 192.101 31.843,192.800 32.190,192.800 32.384 C 192.800 32.579,193.475 32.955,194.300 33.220 C 195.125 33.484,196.070 33.927,196.400 34.203 C 196.730 34.479,197.450 34.841,198.000 35.008 C 198.550 35.174,199.429 35.645,199.954 36.055 C 200.479 36.465,201.244 36.800,201.654 36.800 C 202.064 36.800,202.742 37.142,203.159 37.559 C 203.577 37.977,204.458 38.437,205.118 38.582 C 205.777 38.727,206.634 39.195,207.021 39.623 C 207.407 40.050,208.111 40.400,208.584 40.400 C 209.057 40.400,210.055 40.850,210.800 41.400 C 211.545 41.950,212.458 42.400,212.829 42.400 C 213.199 42.400,213.718 42.661,213.983 42.980 C 214.248 43.298,215.125 43.774,215.932 44.036 C 216.739 44.298,217.544 44.758,217.720 45.057 C 217.896 45.355,218.346 45.601,218.720 45.602 C 219.094 45.603,220.120 46.048,221.000 46.590 C 221.880 47.132,222.893 47.581,223.251 47.588 C 223.609 47.594,224.125 47.869,224.398 48.198 C 224.672 48.527,225.612 49.011,226.489 49.274 C 227.366 49.537,228.172 49.983,228.280 50.265 C 228.389 50.547,229.078 50.891,229.812 51.029 C 230.547 51.167,231.457 51.621,231.836 52.040 C 232.214 52.458,232.946 52.800,233.462 52.800 C 233.978 52.800,234.755 53.155,235.190 53.590 C 235.624 54.024,236.479 54.498,237.090 54.642 C 237.700 54.787,238.560 55.222,239.000 55.609 C 239.440 55.997,240.370 56.434,241.067 56.581 C 241.763 56.728,242.429 57.098,242.546 57.402 C 242.662 57.707,243.400 58.076,244.185 58.224 C 244.969 58.371,245.744 58.715,245.906 58.989 C 246.068 59.263,246.888 59.710,247.728 59.984 C 248.568 60.257,249.353 60.732,249.471 61.040 C 249.589 61.348,250.018 61.600,250.424 61.600 C 251.359 61.600,253.200 62.426,253.200 62.846 C 253.200 63.021,253.818 63.280,254.574 63.421 C 255.329 63.563,256.257 64.021,256.636 64.440 C 257.014 64.858,257.632 65.200,258.008 65.200 C 258.384 65.200,259.121 65.535,259.646 65.945 C 260.171 66.355,261.050 66.823,261.600 66.985 C 262.150 67.147,263.275 67.737,264.100 68.294 L 265.600 69.309 265.600 203.440 C 265.600 337.162,265.598 337.573,264.800 338.000 C 263.971 338.444,262.400 337.940,262.400 337.230 C 262.400 337.043,261.795 336.775,261.055 336.637 C 260.315 336.498,259.387 336.028,258.993 335.592 C 258.599 335.156,257.968 334.800,257.592 334.800 C 257.216 334.800,256.479 334.466,255.954 334.058 C 255.429 333.650,254.325 333.096,253.500 332.827 C 252.675 332.558,252.000 332.186,252.000 332.000 C 252.000 331.814,251.325 331.448,250.500 331.187 C 249.675 330.926,248.820 330.491,248.600 330.222 C 248.380 329.953,247.674 329.602,247.032 329.441 C 246.389 329.281,245.420 328.802,244.878 328.375 C 244.336 327.949,243.556 327.600,243.146 327.600 C 242.736 327.600,242.058 327.258,241.641 326.841 C 241.223 326.423,240.338 325.962,239.674 325.816 C 239.010 325.670,238.381 325.326,238.275 325.051 C 238.170 324.776,237.366 324.337,236.489 324.074 C 235.612 323.811,234.672 323.327,234.398 322.998 C 234.125 322.669,233.588 322.400,233.205 322.400 C 232.822 322.400,232.048 322.038,231.486 321.596 C 230.925 321.155,229.904 320.681,229.218 320.544 C 228.532 320.406,227.749 319.976,227.476 319.588 C 227.204 319.199,226.446 318.818,225.791 318.741 L 224.600 318.600 224.497 340.963 C 224.424 356.669,224.261 363.486,223.948 363.863 C 223.347 364.587,221.019 364.545,220.400 363.800 C 220.126 363.470,219.564 363.200,219.151 363.200 C 218.738 363.200,218.058 362.858,217.641 362.441 C 217.223 362.023,216.338 361.562,215.674 361.416 C 215.009 361.270,214.063 360.802,213.572 360.375 C 213.080 359.949,212.369 359.600,211.993 359.600 C 211.616 359.600,210.879 359.265,210.354 358.855 C 209.829 358.445,208.950 357.971,208.400 357.800 C 207.850 357.629,206.971 357.155,206.446 356.745 C 205.921 356.335,205.181 356.000,204.800 356.000 C 204.419 356.000,203.650 355.640,203.091 355.200 C 202.531 354.760,201.822 354.400,201.515 354.400 C 201.207 354.400,200.345 353.950,199.600 353.400 C 198.855 352.850,197.944 352.400,197.576 352.400 C 197.209 352.400,196.450 352.040,195.891 351.600 C 195.331 351.160,194.622 350.800,194.315 350.800 C 194.007 350.800,193.145 350.350,192.400 349.800 C 191.655 349.250,190.744 348.800,190.376 348.800 C 190.009 348.800,189.279 348.467,188.754 348.061 C 188.229 347.655,187.318 347.204,186.728 347.060 C 186.138 346.917,185.417 346.559,185.124 346.267 C 184.831 345.974,184.132 345.619,183.570 345.478 C 183.008 345.337,182.127 344.857,181.613 344.411 C 181.098 343.965,180.283 343.600,179.801 343.600 C 179.319 343.600,178.607 343.250,178.221 342.823 C 177.834 342.395,177.008 341.934,176.386 341.797 C 175.764 341.660,175.045 341.295,174.787 340.985 C 174.530 340.675,173.719 340.309,172.986 340.171 C 172.252 340.033,171.343 339.579,170.964 339.160 C 170.586 338.742,169.888 338.400,169.413 338.400 C 168.939 338.400,168.172 338.047,167.710 337.616 C 167.247 337.185,166.358 336.711,165.734 336.564 C 165.110 336.416,164.240 335.982,163.800 335.600 C 163.360 335.218,162.500 334.787,161.890 334.642 C 161.279 334.498,160.424 334.024,159.990 333.590 C 159.555 333.155,158.864 332.800,158.454 332.800 C 158.044 332.800,157.279 332.467,156.754 332.061 C 156.229 331.655,155.318 331.204,154.728 331.060 C 154.138 330.917,153.386 330.529,153.057 330.199 C 152.727 329.870,152.199 329.600,151.884 329.600 C 151.569 329.600,150.649 329.150,149.838 328.600 C 149.028 328.050,148.040 327.600,147.644 327.600 C 147.248 327.600,146.617 327.261,146.242 326.846 C 145.866 326.431,145.050 325.990,144.428 325.866 C 143.806 325.741,143.026 325.369,142.697 325.039 C 142.367 324.709,141.580 324.311,140.948 324.154 C 140.317 323.997,139.125 323.328,138.300 322.667 L 136.800 321.466 136.800 187.813 C 136.800 84.394,136.909 54.051,137.280 53.680 C 137.946 53.014,139.802 53.079,140.391 53.789 C 140.660 54.114,141.497 54.494,142.250 54.636 C 143.003 54.777,143.840 55.204,144.110 55.585 C 144.379 55.967,145.258 56.401,146.061 56.550 C 146.865 56.699,147.618 57.070,147.734 57.373 C 147.851 57.676,148.543 58.051,149.273 58.205 C 150.003 58.360,150.960 58.808,151.400 59.200 C 151.840 59.592,152.797 60.040,153.527 60.195 C 154.257 60.349,154.943 60.708,155.053 60.993 C 155.162 61.277,155.794 61.619,156.458 61.752 C 157.122 61.884,158.125 62.355,158.686 62.796 C 159.248 63.238,160.106 63.600,160.592 63.600 C 161.078 63.600,161.786 63.942,162.164 64.360 C 162.543 64.779,163.453 65.233,164.188 65.371 C 164.922 65.509,165.616 65.864,165.729 66.160 C 165.843 66.457,166.557 66.816,167.317 66.958 C 168.076 67.100,169.108 67.573,169.610 68.008 C 170.112 68.444,170.855 68.800,171.261 68.800 C 171.668 68.800,172.342 69.142,172.759 69.559 C 173.177 69.977,174.122 70.448,174.859 70.606 C 175.597 70.764,176.532 71.243,176.937 71.670 C 177.342 72.097,178.062 72.391,178.537 72.323 L 179.400 72.200 179.500 50.000 C 179.555 37.790,179.684 27.575,179.787 27.300 C 180.002 26.727,181.653 26.627,182.220 27.152 M181.635 75.935 C 181.325 76.514,181.200 107.970,181.200 185.412 L 181.200 294.077 182.027 295.238 C 182.546 295.966,183.212 296.400,183.812 296.400 C 184.338 296.400,185.091 296.745,185.484 297.168 C 185.878 297.590,186.740 298.067,187.400 298.229 C 188.060 298.390,189.029 298.855,189.554 299.261 C 190.079 299.667,190.845 300.000,191.258 300.000 C 191.670 300.000,192.316 300.360,192.693 300.800 C 193.070 301.240,193.753 301.600,194.211 301.600 C 194.670 301.600,195.655 302.050,196.400 302.600 C 197.145 303.150,198.143 303.600,198.616 303.600 C 199.089 303.600,199.802 303.960,200.200 304.400 C 200.598 304.840,201.232 305.200,201.608 305.200 C 201.984 305.200,202.721 305.534,203.246 305.942 C 203.771 306.350,204.861 306.899,205.668 307.162 C 206.475 307.426,207.352 307.902,207.617 308.220 C 207.882 308.539,208.412 308.800,208.795 308.800 C 209.178 308.800,209.952 309.162,210.514 309.604 C 211.075 310.045,212.081 310.516,212.747 310.649 C 213.414 310.783,214.266 311.231,214.642 311.646 C 215.017 312.061,215.689 312.400,216.136 312.400 C 216.583 312.400,217.320 312.743,217.774 313.162 C 218.923 314.222,221.663 314.940,222.076 314.290 C 222.248 314.021,222.391 265.001,222.394 205.358 L 222.400 96.917 221.419 95.858 C 220.880 95.276,220.105 94.800,219.697 94.800 C 219.289 94.800,218.345 94.350,217.600 93.800 C 216.855 93.250,215.993 92.800,215.685 92.800 C 215.378 92.800,214.669 92.440,214.109 92.000 C 213.550 91.560,212.871 91.200,212.600 91.200 C 212.329 91.200,211.679 90.866,211.154 90.458 C 210.629 90.050,209.525 89.496,208.700 89.227 C 207.875 88.958,207.200 88.586,207.200 88.401 C 207.200 88.215,206.615 87.940,205.900 87.789 C 205.185 87.637,204.240 87.194,203.800 86.803 C 203.360 86.412,202.550 85.960,202.000 85.799 C 201.450 85.637,200.730 85.279,200.400 85.003 C 200.070 84.727,199.141 84.290,198.335 84.031 C 197.530 83.773,196.770 83.300,196.648 82.981 C 196.525 82.661,195.969 82.400,195.413 82.400 C 194.856 82.400,194.058 82.058,193.641 81.641 C 193.223 81.223,192.342 80.763,191.682 80.618 C 191.023 80.473,190.183 80.023,189.815 79.617 C 189.448 79.211,188.547 78.767,187.812 78.629 C 187.078 78.491,186.382 78.130,186.266 77.827 C 186.149 77.524,185.494 77.152,184.809 77.002 C 184.125 76.852,183.228 76.367,182.817 75.926 L 182.069 75.123 181.635 75.935 " stroke="none" fill="#fcfcfc" fill-rule="evenodd"></path></g></svg>